<svg xmlns="http://www.w3.org/2000/svg" viewBox="-2 -2 1028 1028" version="1.1" width="200px" height="200px">
<g id="Parent-Group"><g id="Group-rgba(0,0,0,0)" fill="rgba(0,0,0,0)">
<path fill="rgba(0,0,0,0)" opacity="1.00" d=" M 0.00 0.00 L 1024.00 0.00 L 1024.00 1024.00 L 0.00 1024.00 L 0.00 0.00 M 602.13 211.24 C 586.32 209.87 570.45 211.13 554.64 211.92 C 545.43 212.63 536.32 214.25 527.09 214.75 C 513.08 216.20 499.06 214.34 485.07 213.63 C 456.32 213.37 427.57 215.44 399.13 219.63 C 388.39 220.69 377.85 216.41 367.10 217.40 C 364.98 217.50 364.04 219.57 363.50 221.33 C 351.48 262.82 340.60 304.65 331.36 346.85 C 328.98 355.96 326.47 365.03 323.91 374.08 C 313.59 413.60 300.85 452.46 291.21 492.16 C 289.93 496.31 289.07 500.58 287.90 504.76 C 287.33 508.40 286.03 511.87 285.30 515.48 C 285.06 515.77 284.58 516.35 284.34 516.64 C 285.72 506.05 290.20 495.81 289.25 484.99 C 288.36 479.62 286.53 473.11 280.95 470.91 C 275.78 469.05 269.95 470.71 265.50 473.63 C 266.73 461.77 270.00 449.99 268.80 437.98 C 268.38 433.66 267.28 429.36 265.27 425.50 C 262.44 420.32 254.95 418.72 250.11 421.99 C 244.17 425.68 240.89 432.28 238.31 438.54 C 235.11 447.06 232.73 456.05 232.41 465.19 C 230.26 459.39 228.70 453.37 225.94 447.82 C 219.75 433.40 212.30 419.11 201.16 407.87 C 195.74 403.07 189.44 398.40 181.99 397.74 C 177.18 397.20 171.96 399.47 169.89 404.02 C 164.58 413.88 166.60 425.75 169.93 435.92 C 174.80 452.37 184.85 466.42 193.56 480.97 C 188.32 481.51 182.31 482.64 179.12 487.31 C 174.33 494.11 175.01 503.33 178.34 510.61 C 182.87 521.10 192.35 528.11 201.20 534.77 C 208.26 539.36 212.82 546.97 215.07 554.95 C 216.44 559.52 216.43 564.34 217.43 568.98 C 210.16 570.15 203.10 572.31 195.98 574.13 C 189.17 576.33 181.83 578.39 176.69 583.67 C 172.33 588.69 172.81 595.96 174.41 601.98 C 175.08 604.72 177.47 606.39 179.92 607.46 C 182.01 620.00 183.12 632.71 185.96 645.12 C 167.69 646.41 149.38 647.69 131.06 647.65 C 129.62 648.09 127.58 648.52 127.47 650.39 C 126.61 652.53 128.76 654.69 130.91 654.47 C 136.07 654.44 141.22 653.87 146.38 653.98 C 143.35 655.73 142.62 659.61 139.43 661.20 C 140.58 663.71 138.64 665.42 136.89 666.94 C 137.30 667.95 137.71 668.96 138.12 669.98 C 137.98 670.68 137.69 672.06 137.55 672.76 C 136.81 673.28 136.08 673.81 135.35 674.35 C 135.61 676.81 136.37 679.23 136.46 681.71 C 134.26 688.34 136.28 695.27 137.19 701.93 C 137.80 705.46 139.88 708.66 139.69 712.34 C 140.73 713.55 141.78 714.76 142.83 715.98 C 142.33 716.57 141.83 717.18 141.34 717.79 C 142.33 720.59 143.69 723.26 144.57 726.11 C 146.12 733.79 150.25 740.81 155.31 746.70 C 156.86 749.14 158.04 751.88 160.35 753.76 C 165.17 757.98 167.70 764.24 172.93 768.06 C 179.03 774.54 185.48 780.96 193.67 784.76 C 195.26 785.94 196.20 787.98 198.21 788.62 C 203.49 790.77 208.45 793.59 213.26 796.66 C 215.20 798.25 217.68 797.23 219.92 797.23 C 222.60 800.23 226.67 802.20 230.75 801.51 C 234.85 805.95 241.59 805.23 246.84 807.44 C 251.68 809.61 256.80 810.99 261.95 812.22 C 265.06 813.18 268.60 811.45 271.32 813.78 C 272.33 813.67 273.34 813.58 274.35 813.49 C 275.18 814.30 276.00 815.13 276.83 815.96 C 277.39 815.77 278.51 815.38 279.06 815.18 C 279.55 815.71 280.04 816.26 280.53 816.81 C 280.91 816.31 281.68 815.29 282.06 814.79 C 282.77 815.42 283.49 816.06 284.22 816.71 C 291.93 819.01 300.08 818.88 307.82 821.12 C 312.32 822.19 317.08 821.68 321.46 823.33 C 325.99 824.91 330.95 823.62 335.44 825.28 C 338.27 826.21 341.24 827.22 344.25 826.53 C 349.00 825.67 353.43 828.11 358.03 828.80 C 362.69 829.40 367.08 831.66 371.86 831.33 C 372.37 832.19 372.89 833.05 373.41 833.93 C 374.62 833.02 375.82 832.11 377.03 831.21 C 377.10 831.92 377.26 833.33 377.34 834.04 C 379.07 833.82 380.93 833.27 382.53 834.30 C 385.12 836.01 388.26 834.89 391.03 835.96 C 391.55 835.78 392.59 835.43 393.10 835.25 C 393.80 835.75 394.51 836.26 395.22 836.78 C 396.09 836.61 396.97 836.45 397.86 836.30 C 402.19 839.44 407.77 839.24 412.76 840.50 C 415.86 841.72 418.89 843.15 421.91 844.58 C 423.33 844.18 424.75 843.78 426.18 843.39 C 426.53 844.10 426.88 844.81 427.24 845.54 C 428.66 845.56 430.07 845.60 431.50 845.65 C 431.74 845.04 432.23 843.83 432.48 843.22 C 433.04 843.23 434.16 843.23 434.72 843.24 C 434.48 844.37 434.23 845.51 433.99 846.66 C 435.75 846.42 437.58 846.14 439.32 846.72 C 443.24 847.80 447.32 848.29 451.08 849.90 C 451.67 849.64 452.85 849.12 453.44 848.86 C 453.99 849.45 454.55 850.07 455.11 850.69 C 457.33 850.71 459.55 850.62 461.76 850.40 C 462.13 850.68 462.86 851.24 463.22 851.52 C 470.34 850.00 477.18 854.11 484.24 853.28 C 484.51 853.72 485.06 854.60 485.33 855.04 C 490.50 855.86 495.77 855.28 500.97 855.75 C 501.33 856.27 502.03 857.33 502.39 857.85 C 503.54 857.35 504.66 856.71 505.93 856.51 C 508.13 856.49 509.82 858.37 511.97 858.57 C 515.47 858.46 518.82 859.77 522.34 859.43 C 522.76 859.08 523.60 858.39 524.02 858.04 C 524.37 858.33 525.08 858.91 525.43 859.20 C 528.26 859.39 530.84 861.33 533.70 860.74 C 538.03 859.64 542.46 861.16 546.85 860.34 C 549.94 861.55 553.17 861.28 556.34 860.50 C 559.97 859.50 563.37 861.82 567.01 861.55 C 570.08 861.18 572.91 863.07 575.99 862.31 C 576.57 861.35 577.16 860.41 577.77 859.48 C 578.61 859.47 579.47 859.48 580.33 859.49 C 580.55 860.16 581.01 861.49 581.24 862.16 C 583.99 861.82 586.91 861.78 589.34 860.26 C 590.27 861.08 591.18 861.90 592.13 862.75 C 592.53 862.05 593.33 860.67 593.73 859.97 C 595.10 860.66 596.47 861.36 597.84 862.08 C 598.35 861.16 598.86 860.26 599.38 859.37 C 603.56 859.42 607.81 859.73 611.77 861.20 C 613.31 861.67 614.92 861.19 616.49 861.10 C 616.50 860.57 616.53 859.51 616.55 858.98 C 618.41 859.21 620.90 860.71 621.80 858.15 C 622.66 858.69 623.53 859.24 624.40 859.80 C 625.10 858.88 625.82 857.99 626.54 857.10 C 627.66 858.28 628.78 859.47 629.93 860.65 C 630.88 859.55 631.83 858.47 632.79 857.38 C 638.08 858.02 643.49 857.81 648.62 856.27 C 652.07 855.46 655.31 853.66 658.94 853.70 C 662.98 853.70 666.80 852.24 670.74 851.54 C 671.97 851.15 672.91 852.14 673.92 852.66 C 674.63 851.89 675.34 851.13 676.06 850.39 C 681.61 850.87 686.64 847.90 692.05 847.25 C 697.18 846.77 701.26 843.12 706.37 842.51 C 710.59 842.02 713.88 839.13 717.85 837.88 C 723.24 836.30 727.49 832.37 732.76 830.48 C 738.10 828.51 742.18 824.19 747.64 822.50 C 751.53 821.17 754.17 817.78 757.60 815.65 C 758.63 815.31 759.65 814.94 760.66 814.52 C 769.14 809.50 776.71 803.11 784.89 797.66 C 785.00 797.16 785.23 796.16 785.34 795.65 C 786.39 795.35 787.60 795.32 788.49 794.60 C 793.01 789.56 798.90 785.98 803.17 780.67 C 803.48 780.57 804.12 780.38 804.44 780.29 C 805.42 777.85 806.87 775.56 809.32 774.40 C 813.11 772.46 815.13 768.62 817.21 765.12 C 818.50 762.84 820.86 761.34 821.82 758.86 C 822.86 756.21 825.06 754.20 825.79 751.41 C 826.14 751.11 826.84 750.51 827.19 750.21 C 828.35 748.00 829.48 745.78 830.55 743.53 C 831.11 743.29 832.23 742.82 832.79 742.59 C 834.02 738.39 835.92 734.44 837.31 730.30 C 838.34 727.30 838.37 723.82 840.63 721.38 C 840.34 717.85 839.63 714.01 842.47 711.27 C 841.55 708.15 842.05 704.98 842.32 701.83 C 841.32 699.30 840.71 696.50 842.63 694.22 C 842.34 692.77 842.03 691.33 841.75 689.91 C 842.04 688.97 842.34 688.03 842.65 687.11 C 841.32 682.60 840.43 677.98 839.42 673.40 C 838.53 671.01 837.10 668.61 834.76 667.43 C 834.55 665.61 834.36 663.79 834.17 661.98 C 832.36 661.33 830.58 660.61 828.75 660.10 C 843.88 661.22 859.02 662.34 874.07 664.30 C 876.32 664.67 879.75 664.85 880.26 661.91 C 881.31 659.92 879.59 657.79 877.59 657.57 C 861.55 655.06 845.30 654.47 829.17 652.91 C 833.21 637.57 836.47 622.05 840.37 606.67 C 842.14 605.64 844.03 604.80 845.67 603.57 C 847.63 600.84 846.70 597.03 844.27 594.93 C 846.06 587.54 847.72 579.41 844.90 572.09 C 841.48 566.22 834.34 564.43 828.47 561.99 C 833.54 556.21 839.06 550.77 843.34 544.33 C 849.59 535.01 855.13 524.93 857.42 513.84 C 860.03 504.74 860.16 494.55 856.01 485.89 C 852.59 478.60 844.95 473.63 836.95 473.20 C 843.67 466.73 849.65 459.02 852.01 449.84 C 854.85 441.03 854.33 430.29 847.90 423.14 C 845.26 420.13 841.31 419.03 837.53 418.34 C 840.59 409.50 844.34 400.54 844.37 390.99 C 844.35 385.94 843.53 380.68 840.72 376.38 C 835.66 369.79 826.07 367.61 818.45 370.64 C 809.95 373.89 803.51 380.68 797.69 387.43 C 797.50 380.50 799.69 373.79 802.85 367.70 C 808.17 356.40 811.61 343.29 807.94 330.95 C 806.35 324.87 802.45 318.83 796.20 316.82 C 791.12 315.02 785.56 318.60 783.63 323.31 C 782.43 326.76 781.35 330.31 781.28 333.99 C 781.05 337.94 784.05 341.09 784.52 344.91 C 784.85 347.27 785.47 349.59 786.28 351.84 C 788.53 358.02 788.97 364.65 789.51 371.16 C 789.76 373.90 790.51 376.61 790.22 379.38 C 786.54 374.21 784.63 367.71 779.57 363.60 C 777.53 361.60 774.78 360.72 772.12 359.93 C 773.52 347.46 777.00 335.33 778.56 322.88 C 782.42 303.59 786.53 284.32 789.56 264.88 C 790.46 261.01 786.85 258.51 783.78 257.22 C 775.19 252.92 765.68 251.06 756.24 249.77 C 758.70 239.28 760.57 228.65 762.40 218.03 C 763.01 214.34 759.29 211.75 755.98 211.65 C 743.03 210.35 730.01 211.61 717.04 211.47 C 706.02 211.44 695.04 210.63 684.04 210.19 C 675.03 209.42 666.01 210.23 657.00 210.38 C 638.77 211.92 620.39 213.03 602.13 211.24 M 813.23 261.03 C 812.94 270.00 812.42 279.02 813.30 287.97 C 813.38 289.65 814.98 290.45 816.14 291.38 C 817.97 290.14 819.81 288.39 819.75 286.00 C 819.85 279.34 819.56 272.68 819.78 266.03 C 819.72 263.91 820.07 261.71 819.42 259.66 C 817.80 257.55 813.42 258.04 813.23 261.03 M 835.34 270.28 C 833.88 273.35 833.55 276.81 832.87 280.11 C 831.74 287.15 829.29 293.98 828.89 301.14 C 829.43 302.31 830.52 303.77 832.04 303.38 C 834.82 303.29 835.83 300.26 836.18 297.97 C 837.73 289.59 840.09 281.35 841.11 272.88 C 841.14 270.06 837.43 268.45 835.34 270.28 M 881.43 394.50 C 876.64 398.82 873.25 404.34 869.27 409.34 C 868.12 410.97 866.88 413.75 868.69 415.35 C 869.99 417.01 872.54 416.27 873.74 414.87 C 877.60 410.66 880.66 405.78 884.34 401.41 C 885.55 399.75 887.66 397.71 886.44 395.50 C 885.76 393.44 882.85 392.96 881.43 394.50 M 875.22 437.19 C 873.25 437.97 871.81 439.52 870.51 441.12 C 871.07 442.80 871.62 445.44 874.01 444.94 C 877.89 444.57 881.16 442.02 884.68 440.50 C 887.93 438.71 891.99 437.36 893.83 433.89 C 893.84 431.58 891.79 430.37 889.97 429.52 C 884.92 431.82 880.31 434.97 875.22 437.19 Z"/>
<path fill="rgba(0,0,0,0)" opacity="1.00" d=" M 245.24 467.13 C 244.45 465.11 246.22 463.51 247.24 462.04 C 247.89 462.40 249.18 463.12 249.83 463.48 C 249.47 468.93 247.97 474.26 247.44 479.72 C 245.51 487.35 245.53 495.25 244.70 503.03 C 244.03 506.20 246.82 510.14 243.09 512.14 C 242.48 511.88 241.25 511.36 240.64 511.10 C 242.04 501.50 242.04 491.73 243.52 482.12 C 244.55 477.20 246.51 472.20 245.24 467.13 Z"/>
<path fill="rgba(0,0,0,0)" opacity="1.00" d=" M 271.00 501.97 C 272.12 500.69 272.78 497.84 274.97 498.43 C 275.33 499.05 276.06 500.29 276.42 500.91 C 273.92 503.90 271.59 507.04 269.00 509.96 C 261.81 518.52 253.13 526.22 248.73 536.73 C 248.24 538.62 245.80 538.50 245.01 536.92 C 245.79 532.97 248.92 530.01 249.87 526.11 C 250.19 523.71 252.41 522.64 254.60 522.51 C 259.30 515.07 266.49 509.57 271.00 501.97 Z"/>
<path fill="rgba(0,0,0,0)" opacity="1.00" d=" M 197.75 502.75 C 199.59 500.17 203.29 499.89 206.04 501.01 C 215.06 504.33 222.97 510.96 227.29 519.61 C 232.80 530.22 233.85 542.31 236.07 553.86 C 237.36 557.57 237.34 561.83 239.56 565.16 C 239.43 566.41 239.28 567.67 239.10 568.93 C 238.00 568.59 235.80 569.28 235.50 567.72 C 234.71 560.89 232.77 554.27 231.73 547.48 C 230.45 537.83 228.23 528.11 223.70 519.43 C 218.57 511.84 211.14 505.00 201.85 503.30 C 200.74 504.37 200.09 507.00 198.09 506.35 C 195.60 506.73 197.01 503.70 197.75 502.75 Z"/>
<path fill="rgba(0,0,0,0)" opacity="1.00" d=" M 262.52 535.60 C 264.64 532.31 266.22 528.51 269.16 525.86 C 270.18 524.41 272.93 526.35 271.83 527.76 C 270.40 530.29 267.81 531.98 266.51 534.62 C 262.03 542.97 258.23 551.68 254.44 560.37 C 253.68 562.12 252.22 563.40 250.93 564.77 C 249.98 563.93 249.05 563.07 248.16 562.19 C 250.19 560.07 252.14 557.82 253.40 555.15 C 256.21 548.53 259.14 541.94 262.52 535.60 Z"/>
</g>
<g id="Group-nocolor">
<path fill="#000000" opacity="1.00" d=" M 602.13 211.24 C 620.39 213.03 638.77 211.92 657.00 210.38 C 666.01 210.23 675.03 209.42 684.04 210.19 C 695.04 210.63 706.02 211.44 717.04 211.47 C 730.01 211.61 743.03 210.35 755.98 211.65 C 759.29 211.75 763.01 214.34 762.40 218.03 C 760.57 228.65 758.70 239.28 756.24 249.77 C 765.68 251.06 775.19 252.92 783.78 257.22 C 786.85 258.51 790.46 261.01 789.56 264.88 C 786.53 284.32 782.42 303.59 778.56 322.88 C 777.00 335.33 773.52 347.46 772.12 359.93 C 774.78 360.72 777.53 361.60 779.57 363.60 C 784.63 367.71 786.54 374.21 790.22 379.38 C 790.51 376.61 789.76 373.90 789.51 371.16 C 788.97 364.65 788.53 358.02 786.28 351.84 C 785.47 349.59 784.85 347.27 784.52 344.91 C 784.05 341.09 781.05 337.94 781.28 333.99 C 781.35 330.31 782.43 326.76 783.63 323.31 C 785.56 318.60 791.12 315.02 796.20 316.82 C 802.45 318.83 806.35 324.87 807.94 330.95 C 811.61 343.29 808.17 356.40 802.85 367.70 C 799.69 373.79 797.50 380.50 797.69 387.43 C 803.51 380.68 809.95 373.89 818.45 370.64 C 826.07 367.61 835.66 369.79 840.72 376.38 C 843.53 380.68 844.35 385.94 844.37 390.99 C 844.34 400.54 840.59 409.50 837.53 418.34 C 841.31 419.03 845.26 420.13 847.90 423.14 C 854.33 430.29 854.85 441.03 852.01 449.84 C 849.65 459.02 843.67 466.73 836.95 473.20 C 844.95 473.63 852.59 478.60 856.01 485.89 C 860.16 494.55 860.03 504.74 857.42 513.84 C 855.13 524.93 849.59 535.01 843.34 544.33 C 839.06 550.77 833.54 556.21 828.47 561.99 C 834.34 564.43 841.48 566.22 844.90 572.09 C 847.72 579.41 846.06 587.54 844.27 594.93 C 846.70 597.03 847.63 600.84 845.67 603.57 C 844.03 604.80 842.14 605.64 840.37 606.67 C 836.47 622.05 833.21 637.57 829.17 652.91 C 845.30 654.47 861.55 655.06 877.59 657.57 C 879.59 657.79 881.31 659.92 880.26 661.91 C 879.75 664.85 876.32 664.67 874.07 664.30 C 859.02 662.34 843.88 661.22 828.75 660.10 C 807.89 658.05 786.96 656.93 766.04 655.77 C 756.70 655.90 747.38 655.08 738.04 655.13 C 733.90 654.48 729.78 653.17 725.55 653.80 C 728.02 654.20 730.55 654.37 732.92 655.29 C 729.19 655.31 725.45 655.38 721.73 655.10 C 717.98 654.96 715.07 652.37 711.87 650.76 C 710.48 655.65 709.27 660.57 708.27 665.56 C 716.88 665.63 725.69 666.25 733.86 669.10 C 736.56 669.82 736.52 673.37 733.94 674.16 C 730.24 674.40 726.70 673.03 723.11 672.37 C 717.80 671.09 712.30 671.24 706.90 670.64 C 705.61 676.51 704.13 682.34 702.74 688.19 C 710.52 687.27 718.44 687.49 726.22 688.28 C 726.16 689.71 726.10 691.15 725.93 692.58 C 717.94 693.06 709.92 692.56 701.93 692.28 C 701.67 693.54 701.42 694.79 701.15 696.06 C 698.89 704.65 697.24 713.38 695.15 722.00 C 698.62 723.15 702.16 724.14 705.60 725.43 C 707.85 725.85 707.18 729.41 705.05 729.29 C 701.30 728.88 697.75 727.45 694.11 726.53 C 692.47 732.15 690.84 737.77 688.93 743.31 C 699.04 745.78 709.00 749.04 718.28 753.81 C 719.99 754.83 722.18 755.88 722.49 758.10 C 723.07 759.88 720.70 761.43 719.16 760.64 C 715.47 759.19 712.13 756.99 708.44 755.55 C 701.37 752.33 693.74 750.65 686.48 747.94 C 680.88 759.78 669.48 768.37 656.83 771.40 C 653.99 772.12 651.09 772.61 648.23 773.22 C 639.70 773.85 631.11 773.97 622.58 773.23 C 617.16 771.98 611.57 772.78 606.08 772.31 C 599.05 771.72 591.99 771.56 585.00 770.62 C 591.79 777.53 596.45 786.22 600.15 795.09 C 601.14 796.91 599.27 799.62 597.21 798.85 C 594.79 797.44 594.21 794.44 593.07 792.10 C 590.34 785.05 585.52 779.08 580.55 773.48 C 579.02 772.11 577.71 770.04 575.52 769.80 C 562.97 768.83 550.47 767.33 537.96 765.98 C 532.32 765.72 526.71 765.13 521.15 764.15 C 525.25 768.99 530.86 772.23 535.04 776.98 C 538.00 780.65 540.31 785.16 540.36 789.98 C 540.57 792.97 535.77 794.16 535.24 790.86 C 534.76 783.43 530.12 776.93 523.75 773.29 C 518.76 770.56 514.80 766.05 509.54 763.88 C 496.65 763.16 483.72 762.74 470.89 761.20 C 476.07 766.68 481.26 772.18 486.33 777.77 C 488.52 779.53 486.20 781.83 485.05 783.41 C 483.47 782.21 481.95 780.93 480.68 779.41 C 474.79 772.56 468.14 766.36 460.82 761.08 C 455.25 760.13 449.54 760.63 443.92 760.46 C 432.46 768.33 418.58 771.32 405.96 776.76 C 405.58 775.69 405.21 774.63 404.84 773.59 C 415.18 769.43 425.76 765.71 435.33 759.90 C 424.24 759.79 413.14 759.33 402.06 759.34 C 397.64 761.96 393.20 764.56 388.33 766.29 C 377.06 771.38 365.60 776.40 353.36 778.62 C 349.63 779.32 345.68 782.60 341.96 780.86 C 341.92 780.41 341.83 779.53 341.79 779.08 C 346.10 776.69 351.11 775.95 355.80 774.56 C 365.40 772.37 374.38 768.25 383.27 764.12 C 386.94 762.35 390.70 760.73 394.15 758.53 C 381.70 757.61 369.38 755.57 357.02 753.95 C 347.91 752.24 338.68 750.92 329.43 750.43 C 326.28 752.19 324.01 755.24 320.73 756.82 C 319.18 757.88 317.29 757.28 315.94 756.21 C 317.91 753.86 320.03 751.65 322.33 749.63 C 315.16 749.35 307.69 745.16 300.77 748.74 C 281.77 755.82 261.72 759.26 241.94 763.27 C 240.24 763.83 238.83 762.72 237.47 761.92 C 240.05 758.14 245.00 758.39 248.99 757.43 C 255.73 755.87 262.46 754.29 269.27 753.04 C 278.36 750.81 287.07 747.31 296.03 744.64 C 284.56 742.57 273.09 739.30 263.14 733.06 C 260.49 734.74 257.58 735.96 254.50 736.61 C 254.54 735.65 254.62 733.73 254.66 732.77 C 256.64 732.32 258.62 731.86 260.60 731.39 C 258.36 728.93 255.39 727.25 253.35 724.60 C 249.83 720.11 247.86 714.70 245.25 709.69 C 244.96 710.24 244.38 711.33 244.09 711.88 C 241.54 713.04 238.86 714.02 236.01 713.72 C 230.42 713.57 223.68 716.32 219.05 712.09 C 220.14 710.90 220.95 708.51 223.01 709.22 C 230.42 711.03 238.75 712.00 245.59 707.84 C 240.44 688.03 246.05 667.66 250.99 648.42 C 245.96 648.49 240.94 648.76 235.95 649.37 C 214.64 650.23 193.34 651.23 172.06 652.72 C 163.53 653.48 154.96 654.20 146.38 653.98 C 141.22 653.87 136.07 654.44 130.91 654.47 C 128.76 654.69 126.61 652.53 127.47 650.39 C 127.58 648.52 129.62 648.09 131.06 647.65 C 149.38 647.69 167.69 646.41 185.96 645.12 C 183.12 632.71 182.01 620.00 179.92 607.46 C 177.47 606.39 175.08 604.72 174.41 601.98 C 172.81 595.96 172.33 588.69 176.69 583.67 C 181.83 578.39 189.17 576.33 195.98 574.13 C 203.10 572.31 210.16 570.15 217.43 568.98 C 216.43 564.34 216.44 559.52 215.07 554.95 C 212.82 546.97 208.26 539.36 201.20 534.77 C 192.35 528.11 182.87 521.10 178.34 510.61 C 175.01 503.33 174.33 494.11 179.12 487.31 C 182.31 482.64 188.32 481.51 193.56 480.97 C 184.85 466.42 174.80 452.37 169.93 435.92 C 166.60 425.75 164.58 413.88 169.89 404.02 C 171.96 399.47 177.18 397.20 181.99 397.74 C 189.44 398.40 195.74 403.07 201.16 407.87 C 212.30 419.11 219.75 433.40 225.94 447.82 C 228.70 453.37 230.26 459.39 232.41 465.19 C 232.73 456.05 235.11 447.06 238.31 438.54 C 240.89 432.28 244.17 425.68 250.11 421.99 C 254.95 418.72 262.44 420.32 265.27 425.50 C 267.28 429.36 268.38 433.66 268.80 437.98 C 270.00 449.99 266.73 461.77 265.50 473.63 C 269.95 470.71 275.78 469.05 280.95 470.91 C 286.53 473.11 288.36 479.62 289.25 484.99 C 290.20 495.81 285.72 506.05 284.34 516.64 C 284.58 516.35 285.06 515.77 285.30 515.48 C 286.03 511.87 287.33 508.40 287.90 504.76 C 289.07 500.58 289.93 496.31 291.21 492.16 C 300.85 452.46 313.59 413.60 323.91 374.08 C 326.47 365.03 328.98 355.96 331.36 346.85 C 340.60 304.65 351.48 262.82 363.50 221.33 C 364.04 219.57 364.98 217.50 367.10 217.40 C 377.85 216.41 388.39 220.69 399.13 219.63 C 427.57 215.44 456.32 213.37 485.07 213.63 C 499.06 214.34 513.08 216.20 527.09 214.75 C 536.32 214.25 545.43 212.63 554.64 211.92 C 570.45 211.13 586.32 209.87 602.13 211.24 M 662.82 217.46 C 657.68 217.45 652.52 217.35 647.43 218.05 C 631.29 218.95 615.06 219.36 598.94 217.88 C 586.31 217.41 573.64 217.53 561.04 218.50 C 552.63 218.31 544.40 220.27 536.06 221.01 C 522.14 222.89 508.07 222.29 494.11 221.25 C 483.10 219.96 472.03 220.98 460.99 220.84 C 443.94 221.32 426.90 222.71 410.03 225.28 C 403.66 225.73 397.35 227.50 390.93 226.73 C 384.15 226.00 377.39 225.11 370.65 224.12 C 365.85 238.96 361.80 254.05 357.73 269.11 C 354.02 284.82 349.45 300.31 345.98 316.08 C 342.90 326.61 341.78 337.60 338.71 348.13 C 335.85 359.90 332.22 371.45 329.13 383.16 C 323.43 405.28 316.87 427.16 310.42 449.07 C 307.99 458.57 305.26 467.98 302.61 477.43 C 296.65 500.52 291.64 523.86 285.31 546.86 C 284.64 549.78 284.20 552.80 282.90 555.54 C 281.43 564.46 278.54 573.10 276.56 581.92 C 269.60 608.18 263.50 634.64 257.01 661.02 C 253.77 675.35 250.27 690.57 254.87 705.02 C 257.59 715.66 266.50 723.49 276.09 728.06 C 287.02 732.54 298.49 735.65 310.11 737.75 C 324.03 739.92 338.09 741.31 351.94 743.93 C 364.96 745.61 377.95 747.41 391.00 748.85 C 404.34 749.57 417.70 749.92 431.05 750.33 C 447.41 750.14 463.71 751.66 479.97 753.27 C 491.81 753.69 503.65 754.19 515.49 754.71 C 538.55 756.59 561.53 759.12 584.57 761.22 C 595.35 761.70 606.16 762.72 616.95 761.93 C 626.50 760.84 636.50 760.65 645.35 756.48 C 650.61 753.65 655.77 750.01 658.74 744.68 C 663.18 736.50 664.96 727.25 666.43 718.15 C 668.48 702.71 671.12 687.36 673.90 672.04 C 678.50 647.19 681.56 622.09 686.14 597.24 C 690.29 576.56 693.21 555.67 697.17 534.96 C 697.52 533.24 697.78 531.51 697.72 529.77 C 697.81 529.60 698.00 529.25 698.10 529.08 C 701.81 508.71 705.55 488.35 709.47 468.03 C 714.32 444.60 719.01 421.13 722.63 397.48 C 728.32 362.38 735.58 327.54 741.33 292.47 C 745.92 267.98 749.75 243.35 754.80 218.94 C 740.96 216.71 726.99 219.13 713.09 218.29 C 701.39 217.95 689.67 217.50 677.99 216.69 C 672.95 217.09 667.75 216.30 662.82 217.46 M 753.29 269.13 C 751.02 282.45 748.11 295.65 745.81 308.96 C 745.28 313.80 744.17 318.54 743.18 323.30 C 736.43 361.48 729.37 399.59 723.30 437.89 C 719.78 457.09 714.63 476.02 712.41 495.44 L 711.64 495.37 C 708.18 520.76 703.10 545.92 698.60 571.15 C 695.74 590.57 691.44 609.74 688.72 629.18 C 686.00 647.80 682.71 666.32 679.39 684.84 C 675.92 702.17 675.52 720.09 670.14 737.03 C 667.02 749.20 657.72 759.48 646.07 764.07 C 641.30 765.54 636.26 765.72 631.38 766.64 C 640.94 767.43 650.43 765.58 659.48 762.65 C 670.36 757.92 678.86 748.11 682.52 736.88 C 685.10 729.95 686.25 722.60 688.40 715.53 C 694.63 688.67 700.64 661.74 707.63 635.06 C 709.44 626.35 711.51 617.70 713.28 608.98 C 720.51 572.57 728.73 536.38 735.98 499.98 C 738.75 487.90 740.46 475.61 743.26 463.54 C 746.66 446.50 749.44 429.32 753.65 412.45 C 756.93 394.40 761.42 376.58 764.27 358.45 C 766.39 347.14 768.97 335.93 770.74 324.56 C 774.27 305.74 778.29 287.01 781.52 268.12 C 781.66 266.49 782.52 264.24 780.59 263.32 C 773.08 258.86 764.30 257.74 755.84 256.43 C 754.73 260.61 753.75 264.82 753.29 269.13 M 787.87 335.24 C 788.20 339.46 789.70 343.52 790.54 347.67 C 791.46 343.74 790.29 339.86 789.85 335.97 C 789.76 334.19 790.76 331.52 792.98 331.81 C 795.34 331.28 795.65 334.30 795.65 335.93 C 795.50 341.91 796.45 348.22 793.78 353.80 C 795.30 359.89 795.87 366.19 794.22 372.32 C 795.09 368.21 797.14 364.51 798.48 360.55 C 801.60 350.88 804.16 339.80 799.63 330.14 C 798.30 327.12 795.51 324.05 791.93 324.40 C 788.24 326.55 788.47 331.54 787.87 335.24 M 770.54 367.09 C 769.02 375.94 766.89 384.67 765.27 393.51 C 762.84 402.62 761.96 412.09 759.31 421.14 C 763.45 422.58 767.61 424.17 771.22 426.72 C 777.97 431.72 782.29 439.11 787.80 445.31 C 790.58 449.43 793.74 455.02 799.22 455.28 C 799.55 448.04 798.23 440.85 798.11 433.62 C 795.29 434.14 792.36 434.25 789.65 433.19 C 784.21 431.55 780.96 426.56 777.54 422.41 C 775.00 418.78 771.70 415.33 770.99 410.79 C 771.06 408.35 774.39 407.19 775.92 409.21 C 780.30 415.60 784.27 422.72 790.83 427.18 C 792.70 428.55 795.11 428.62 797.32 429.02 C 798.00 427.02 797.44 424.96 797.06 422.98 C 795.62 416.65 794.68 410.19 792.82 403.96 C 791.98 400.88 789.53 398.67 787.98 395.98 C 783.74 389.84 783.28 382.00 779.27 375.76 C 777.14 372.21 774.50 368.68 770.54 367.09 M 812.52 382.43 C 805.94 386.92 801.25 393.51 797.11 400.17 C 797.76 408.55 800.97 416.52 801.43 424.92 C 807.39 414.33 815.00 404.80 821.36 394.48 C 822.29 392.33 825.62 391.42 826.71 393.98 C 826.58 395.49 826.05 396.94 825.20 398.18 C 819.59 406.87 813.59 415.28 807.71 423.78 C 806.03 426.14 804.49 428.66 802.21 430.50 C 803.06 439.74 803.88 448.99 804.22 458.26 C 813.25 453.07 822.25 447.78 830.53 441.43 C 833.03 439.81 835.12 437.32 838.11 436.60 C 840.36 437.20 840.30 440.41 838.82 441.76 C 836.39 444.07 833.53 445.85 830.98 448.01 C 822.50 455.21 812.25 459.76 802.87 465.60 C 802.55 476.70 800.12 487.68 796.81 498.25 C 802.72 490.99 810.01 484.94 817.80 479.79 C 824.28 475.45 830.23 470.28 835.24 464.30 C 842.88 455.96 847.80 444.12 845.23 432.76 C 843.80 428.61 839.51 425.61 835.13 425.56 C 832.86 425.25 829.43 425.78 828.71 422.90 C 827.89 419.22 830.45 415.89 831.58 412.54 C 835.30 403.92 837.51 394.30 835.96 384.93 C 834.97 379.15 828.58 375.58 823.05 376.72 C 819.16 377.80 815.80 380.16 812.52 382.43 M 789.69 386.81 C 791.24 389.95 792.68 393.19 794.91 395.94 C 795.30 392.36 792.13 389.70 792.43 386.09 C 791.58 385.01 790.55 386.55 789.69 386.81 M 186.67 420.44 C 186.36 422.70 187.78 424.54 188.74 426.44 C 192.79 433.79 195.77 441.70 199.93 449.00 C 207.18 460.15 211.27 472.89 217.39 484.62 C 218.42 486.78 220.54 489.97 223.24 487.99 C 224.24 485.17 221.04 484.07 220.03 481.95 C 214.26 471.18 209.78 459.78 203.97 449.04 C 198.31 439.90 194.17 429.92 189.11 420.48 C 188.50 420.47 187.28 420.45 186.67 420.44 M 757.68 428.05 C 755.23 442.95 752.45 457.78 749.42 472.57 C 752.33 472.54 754.73 474.48 757.02 476.06 C 765.77 482.23 770.41 492.64 779.41 498.53 C 783.00 500.82 786.42 503.50 790.49 504.90 C 792.71 491.83 798.01 479.28 798.52 465.89 C 791.77 466.76 785.47 464.06 779.42 461.48 C 777.84 460.87 777.26 459.14 776.41 457.85 C 777.75 456.99 779.11 455.19 780.93 456.08 C 786.81 457.28 792.03 460.44 797.86 461.82 C 797.91 461.49 798.01 460.83 798.05 460.51 C 791.56 459.66 786.62 454.98 782.73 450.07 C 775.00 442.12 768.97 431.42 757.68 428.05 M 245.24 467.13 C 246.51 472.20 244.55 477.20 243.52 482.12 C 242.04 491.73 242.04 501.50 240.64 511.10 C 241.25 511.36 242.48 511.88 243.09 512.14 C 246.82 510.14 244.03 506.20 244.70 503.03 C 245.53 495.25 245.51 487.35 247.44 479.72 C 247.97 474.26 249.47 468.93 249.83 463.48 C 249.18 463.12 247.89 462.40 247.24 462.04 C 246.22 463.51 244.45 465.11 245.24 467.13 M 747.51 479.87 C 745.58 490.28 743.83 500.72 741.63 511.07 C 739.42 523.90 735.81 536.48 734.14 549.39 C 742.43 553.31 750.50 557.86 759.23 560.76 C 769.38 563.24 779.78 564.72 790.16 565.89 C 790.47 558.97 788.17 552.29 787.96 545.42 C 777.87 548.22 766.77 543.78 761.05 535.11 C 761.71 534.24 762.39 533.36 763.07 532.50 C 765.93 533.99 768.34 536.16 771.00 537.98 C 774.42 540.01 778.28 541.38 782.28 541.64 C 775.27 539.08 768.84 535.38 762.47 531.55 C 756.11 525.77 752.25 517.41 751.71 508.85 C 751.99 506.43 754.56 506.48 756.41 506.21 C 758.77 508.64 758.41 512.21 759.62 515.16 C 761.34 519.78 764.71 523.51 768.18 526.90 C 773.38 532.31 780.22 535.73 787.47 537.46 C 785.88 528.71 787.34 519.88 787.99 511.13 C 781.13 507.99 773.84 505.06 768.67 499.33 C 761.71 492.75 756.37 484.19 747.51 479.87 M 830.76 481.79 C 820.27 485.20 812.09 492.83 803.84 499.79 C 799.98 502.97 797.14 507.23 792.94 510.00 C 791.59 518.28 791.05 526.70 791.78 535.07 C 804.75 528.28 817.35 520.72 829.44 512.46 C 832.96 510.33 835.56 506.24 839.95 505.97 C 840.36 506.49 841.17 507.54 841.58 508.07 C 840.19 510.75 837.93 512.79 835.73 514.81 C 828.12 521.05 819.55 525.93 811.23 531.14 C 805.77 534.51 799.66 536.66 794.33 540.23 C 791.99 541.57 792.50 544.74 792.66 547.01 C 793.64 553.50 794.76 560.00 794.64 566.59 C 798.14 566.43 801.71 566.57 805.14 565.68 C 816.03 563.68 824.38 555.47 831.24 547.30 C 841.49 535.39 848.98 520.76 850.95 505.07 C 851.82 498.34 851.16 490.78 846.38 485.56 C 842.69 481.01 836.09 480.41 830.76 481.79 M 271.00 501.97 C 266.49 509.57 259.30 515.07 254.60 522.51 C 252.41 522.64 250.19 523.71 249.87 526.11 C 248.92 530.01 245.79 532.97 245.01 536.92 C 245.80 538.50 248.24 538.62 248.73 536.73 C 253.13 526.22 261.81 518.52 269.00 509.96 C 271.59 507.04 273.92 503.90 276.42 500.91 C 276.06 500.29 275.33 499.05 274.97 498.43 C 272.78 497.84 272.12 500.69 271.00 501.97 M 795.22 499.38 C 795.74 499.86 795.74 499.86 795.22 499.38 M 197.75 502.75 C 197.01 503.70 195.60 506.73 198.09 506.35 C 200.09 507.00 200.74 504.37 201.85 503.30 C 211.14 505.00 218.57 511.84 223.70 519.43 C 228.23 528.11 230.45 537.83 231.73 547.48 C 232.77 554.27 234.71 560.89 235.50 567.72 C 235.80 569.28 238.00 568.59 239.10 568.93 C 239.28 567.67 239.43 566.41 239.56 565.16 C 237.34 561.83 237.36 557.57 236.07 553.86 C 233.85 542.31 232.80 530.22 227.29 519.61 C 222.97 510.96 215.06 504.33 206.04 501.01 C 203.29 499.89 199.59 500.17 197.75 502.75 M 262.52 535.60 C 259.14 541.94 256.21 548.53 253.40 555.15 C 252.14 557.82 250.19 560.07 248.16 562.19 C 249.05 563.07 249.98 563.93 250.93 564.77 C 252.22 563.40 253.68 562.12 254.44 560.37 C 258.23 551.68 262.03 542.97 266.51 534.62 C 267.81 531.98 270.40 530.29 271.83 527.76 C 272.93 526.35 270.18 524.41 269.16 525.86 C 266.22 528.51 264.64 532.31 262.52 535.60 M 731.92 557.55 C 731.41 559.39 730.91 561.23 730.54 563.12 C 733.06 562.01 735.63 560.98 738.19 559.96 C 736.07 559.21 734.00 558.37 731.92 557.55 M 734.72 570.19 C 738.62 572.97 743.00 575.06 747.51 576.65 C 767.36 582.75 788.32 585.64 809.06 583.93 C 815.67 583.05 822.46 582.41 828.59 579.57 C 831.33 578.22 833.52 576.02 835.91 574.15 C 832.38 571.61 828.41 569.67 824.19 568.59 C 821.58 567.96 819.43 570.21 816.92 570.46 C 809.52 571.58 802.02 572.12 794.55 571.92 C 794.76 575.10 793.79 578.36 790.82 579.99 C 788.06 577.93 789.41 574.35 789.21 571.45 C 780.85 569.99 772.41 569.04 764.01 567.90 C 759.56 567.23 755.43 565.37 751.12 564.24 C 746.14 567.64 739.55 566.60 734.72 570.19 M 267.26 570.27 C 268.66 571.77 270.56 571.98 271.75 570.01 C 270.25 569.12 268.71 569.69 267.26 570.27 M 188.07 585.21 C 203.63 591.03 220.40 592.95 236.94 592.50 C 245.74 592.56 254.55 591.48 263.03 589.08 C 264.37 588.79 265.54 588.09 266.63 587.28 C 258.75 587.94 251.01 590.12 243.05 589.92 C 235.84 589.71 228.43 590.65 221.43 588.46 C 218.32 587.46 214.88 588.37 211.98 586.61 C 211.91 585.39 211.85 584.17 211.81 582.96 C 213.10 582.60 214.39 582.25 215.69 581.91 C 216.23 579.83 216.74 577.74 217.15 575.63 C 207.37 578.55 196.98 579.89 188.07 585.21 M 732.60 577.29 C 733.02 583.40 733.09 589.82 735.32 595.59 C 740.18 599.66 747.01 599.98 752.91 601.71 C 766.48 603.85 780.16 605.49 793.91 605.73 C 808.42 606.58 822.66 603.19 837.04 602.07 C 837.36 601.52 838.00 600.43 838.33 599.88 C 836.20 599.77 834.09 599.68 831.99 599.57 C 832.94 596.60 834.71 594.04 836.37 591.44 C 837.99 588.00 837.83 584.06 838.31 580.37 C 826.64 587.56 812.34 588.33 799.00 588.69 C 781.21 588.84 763.32 586.67 746.23 581.66 C 741.62 580.39 737.35 578.02 732.60 577.29 M 180.74 599.05 C 187.15 604.55 196.19 604.74 204.14 606.21 C 213.76 606.73 223.36 608.79 233.01 607.75 C 242.41 607.75 251.75 606.74 261.14 606.32 C 262.24 602.07 263.33 597.83 264.63 593.65 C 249.62 596.72 234.17 597.36 218.90 596.23 C 206.28 595.46 193.75 593.09 181.89 588.64 C 180.60 591.96 180.49 595.53 180.74 599.05 M 723.72 594.91 C 723.54 596.66 723.39 598.41 723.23 600.16 C 719.70 615.01 717.01 630.10 713.16 644.89 C 720.61 645.06 728.04 645.74 735.47 646.25 C 734.50 640.15 733.49 634.05 732.73 627.92 C 731.58 618.20 729.14 608.63 728.68 598.83 C 725.36 597.23 725.06 593.19 725.29 589.95 C 724.86 591.63 724.76 593.45 723.72 594.91 M 736.15 602.80 C 737.90 617.86 740.50 632.83 742.82 647.82 C 769.23 648.85 795.64 650.08 821.99 652.20 C 822.17 648.99 822.90 645.87 823.87 642.82 C 826.74 630.94 829.84 619.13 832.71 607.25 C 824.97 607.44 817.29 608.36 809.65 609.55 C 801.54 609.76 793.42 609.56 785.31 609.73 C 781.92 608.74 778.31 609.37 774.85 608.81 C 766.55 607.59 758.11 607.56 749.85 605.99 C 745.30 604.84 740.76 603.67 736.15 602.80 M 796.25 607.00 C 796.28 610.33 799.28 605.57 796.25 607.00 M 186.69 607.54 C 188.63 619.85 190.63 632.15 192.23 644.51 C 197.19 644.64 202.14 644.30 207.09 644.05 C 222.22 642.96 237.42 642.70 252.54 641.59 C 255.54 631.23 257.35 620.55 260.61 610.27 C 252.04 610.59 243.48 611.17 234.93 611.80 C 218.76 612.23 202.53 610.73 186.69 607.54 M 467.13 759.11 C 467.36 762.42 470.07 757.49 467.13 759.11 Z"/>
<path fill="#000000" opacity="1.00" d=" M 813.23 261.03 C 813.42 258.04 817.80 257.55 819.42 259.66 C 820.07 261.71 819.72 263.91 819.78 266.03 C 819.56 272.68 819.85 279.34 819.75 286.00 C 819.81 288.39 817.97 290.14 816.14 291.38 C 814.98 290.45 813.38 289.65 813.30 287.97 C 812.42 279.02 812.94 270.00 813.23 261.03 Z"/>
<path fill="#000000" opacity="1.00" d=" M 835.34 270.28 C 837.43 268.45 841.14 270.06 841.11 272.88 C 840.09 281.35 837.73 289.59 836.18 297.97 C 835.83 300.26 834.82 303.29 832.04 303.38 C 830.52 303.77 829.43 302.31 828.89 301.14 C 829.29 293.98 831.74 287.15 832.87 280.11 C 833.55 276.81 833.88 273.35 835.34 270.28 Z"/>
<path fill="#000000" opacity="1.00" d=" M 460.84 282.86 C 464.09 281.37 469.65 282.70 469.83 286.92 C 469.92 295.14 466.61 302.85 464.80 310.75 C 460.44 328.54 455.65 346.23 451.71 364.13 C 449.98 368.80 450.20 374.58 446.06 378.01 C 442.58 380.24 437.98 379.23 434.61 377.29 C 431.79 375.12 431.50 371.33 430.94 368.09 C 428.80 351.64 426.93 335.13 425.37 318.62 C 425.04 318.39 424.40 317.94 424.08 317.72 C 419.84 335.21 415.23 352.60 410.83 370.05 C 409.96 372.74 409.59 376.32 406.65 377.58 C 403.32 379.35 397.79 377.18 397.82 372.99 C 397.66 370.25 398.35 367.56 398.91 364.90 C 401.91 351.80 405.96 338.97 409.02 325.89 C 412.43 313.45 414.66 300.70 418.52 288.38 C 420.20 282.91 428.93 281.36 432.12 286.10 C 434.00 290.69 434.21 295.73 435.32 300.51 C 438.13 314.24 440.54 328.05 442.16 341.97 C 442.39 343.31 442.03 345.02 443.32 345.94 C 444.00 339.08 446.60 332.63 447.60 325.83 C 450.26 314.35 453.05 302.90 455.80 291.44 C 456.83 288.32 457.26 284.12 460.84 282.86 Z"/>
<path fill="#000000" opacity="1.00" d=" M 480.23 287.18 C 482.39 282.92 487.73 281.95 492.06 281.92 C 500.07 282.02 508.10 281.76 516.10 282.23 C 518.81 282.27 520.21 284.92 521.49 286.91 C 520.45 289.83 519.74 293.84 516.01 294.33 C 508.50 294.91 500.94 293.95 493.43 294.57 C 491.67 294.59 491.53 296.79 491.01 298.02 C 489.02 306.04 487.54 314.18 485.45 322.18 C 491.43 322.50 497.45 322.23 503.41 322.88 C 508.16 324.37 507.95 332.63 503.01 333.72 C 496.73 335.31 490.17 334.70 483.76 335.07 C 480.26 345.59 478.15 356.55 475.57 367.34 C 484.07 367.56 492.78 366.53 501.14 368.56 C 506.58 371.32 504.38 381.63 498.08 381.56 C 487.20 381.47 476.28 381.44 465.45 380.40 C 459.96 379.65 459.62 373.11 460.78 368.87 C 465.93 346.60 472.09 324.55 476.69 302.15 C 478.07 297.20 478.36 291.98 480.23 287.18 Z"/>
<path fill="#000000" opacity="1.00" d=" M 633.50 282.61 C 641.64 280.31 651.80 283.22 655.66 291.20 C 657.46 295.64 658.77 301.06 656.40 305.54 C 654.27 308.53 649.88 308.17 646.81 307.10 C 643.59 305.85 643.96 301.92 642.90 299.21 C 642.10 295.80 638.13 293.76 634.90 295.14 C 625.21 298.01 621.59 311.59 627.69 319.35 C 632.25 325.40 638.90 329.52 643.30 335.73 C 648.84 343.01 649.76 353.00 647.43 361.64 C 643.03 376.26 626.93 385.96 611.94 383.15 C 607.50 382.11 603.03 380.44 599.59 377.36 C 595.53 373.57 594.02 367.17 596.38 362.07 C 598.06 357.81 604.39 356.02 607.79 359.29 C 609.35 361.62 609.54 364.58 610.94 366.99 C 613.72 369.76 618.11 370.91 621.87 369.64 C 630.16 367.68 634.21 357.31 631.25 349.76 C 627.22 339.21 616.46 333.15 612.23 322.73 C 608.78 313.82 610.69 303.55 615.30 295.41 C 619.15 288.72 626.05 284.25 633.50 282.61 Z"/>
<path fill="#000000" opacity="1.00" d=" M 527.73 290.50 C 528.24 285.95 533.62 282.71 537.87 284.12 C 540.67 285.07 541.19 288.45 541.10 291.02 C 540.05 309.35 537.47 327.55 536.61 345.90 C 536.50 349.22 535.86 352.65 536.86 355.90 C 541.16 346.40 545.96 337.14 551.00 328.02 C 552.36 325.72 554.02 322.94 557.01 322.76 C 560.67 321.79 564.96 324.20 565.30 328.15 C 566.22 337.75 566.91 347.43 566.77 357.08 C 566.97 356.92 567.38 356.60 567.58 356.44 C 575.65 336.36 582.27 315.68 588.93 295.08 C 590.33 291.59 591.20 287.09 595.01 285.40 C 597.65 284.38 601.50 283.90 603.35 286.59 C 605.03 288.20 604.09 290.55 603.63 292.48 C 594.93 321.08 584.97 349.28 574.20 377.16 C 572.15 383.61 561.56 384.59 558.42 378.60 C 556.34 375.06 556.48 370.86 555.98 366.92 C 555.30 360.94 554.96 354.93 554.70 348.93 C 555.08 347.71 553.39 344.89 553.02 347.95 C 549.02 357.98 544.78 367.98 539.19 377.24 C 535.84 383.54 523.96 382.61 522.94 375.01 C 521.65 358.18 524.24 341.41 524.92 324.61 C 525.87 313.24 526.40 301.84 527.73 290.50 Z"/>
<path fill="#000000" opacity="1.00" d=" M 881.43 394.50 C 882.85 392.96 885.76 393.44 886.44 395.50 C 887.66 397.71 885.55 399.75 884.34 401.41 C 880.66 405.78 877.60 410.66 873.74 414.87 C 872.54 416.27 869.99 417.01 868.69 415.35 C 866.88 413.75 868.12 410.97 869.27 409.34 C 873.25 404.34 876.64 398.82 881.43 394.50 Z"/>
<path fill="#000000" opacity="1.00" d=" M 389.82 414.63 C 391.89 414.26 393.99 414.15 396.10 414.22 C 403.08 414.38 410.05 413.13 417.03 413.73 C 422.92 414.42 428.70 415.80 434.41 417.40 C 442.38 419.74 450.80 418.85 458.96 418.39 C 468.03 417.88 477.00 419.66 485.93 420.97 C 503.50 424.08 521.28 420.42 538.94 421.71 C 547.00 422.42 555.09 422.96 563.11 424.21 C 580.11 427.38 597.07 421.41 614.13 422.49 C 622.61 423.18 630.47 427.16 639.02 427.32 C 642.98 427.58 646.97 427.01 650.92 427.49 C 653.57 427.62 652.72 431.10 651.81 432.61 C 649.76 433.86 647.29 433.57 645.01 433.64 C 640.31 433.58 635.57 433.77 630.94 432.81 C 625.56 431.88 620.48 429.61 615.01 429.13 C 605.28 427.69 595.62 430.16 585.95 430.92 C 577.72 431.84 569.33 432.23 561.17 430.51 C 555.17 429.10 548.98 429.40 542.90 428.61 C 529.00 426.68 514.97 428.46 501.02 428.64 C 490.22 428.93 479.66 426.37 469.01 425.03 C 460.01 423.78 450.99 425.89 441.98 425.06 C 432.43 424.65 423.58 420.37 414.05 419.85 C 406.69 419.54 399.33 420.02 391.98 419.81 C 390.23 419.99 389.27 418.32 388.34 417.17 C 388.71 416.54 389.45 415.27 389.82 414.63 Z"/>
<path fill="#000000" opacity="1.00" d=" M 875.22 437.19 C 880.31 434.97 884.92 431.82 889.97 429.52 C 891.79 430.37 893.84 431.58 893.83 433.89 C 891.99 437.36 887.93 438.71 884.68 440.50 C 881.16 442.02 877.89 444.57 874.01 444.94 C 871.62 445.44 871.07 442.80 870.51 441.12 C 871.81 439.52 873.25 437.97 875.22 437.19 Z"/>
<path fill="#000000" opacity="1.00" d=" M 399.03 463.65 C 413.65 463.29 428.21 460.06 442.87 461.73 C 459.31 463.75 475.51 467.63 492.09 468.56 C 505.02 469.14 518.00 469.80 530.94 468.81 C 543.37 468.01 555.84 468.91 568.17 470.47 C 580.67 472.78 593.32 474.10 605.93 475.64 C 620.58 478.28 635.60 476.40 650.26 478.82 C 653.96 479.66 652.32 484.97 649.08 485.06 C 643.02 484.97 637.07 483.30 630.99 483.74 C 617.56 484.34 604.27 482.11 590.98 480.53 C 581.54 479.88 572.35 477.45 562.93 476.65 C 555.00 475.50 546.99 475.20 539.00 474.82 C 521.70 476.43 504.27 476.04 486.97 474.78 C 473.57 473.69 460.36 471.15 447.13 468.90 C 439.48 467.64 431.68 467.46 423.95 467.88 C 413.00 468.91 402.02 470.69 390.98 469.92 C 386.25 469.57 381.44 470.09 376.78 469.13 C 375.13 468.79 374.33 467.19 373.36 466.03 C 374.20 464.79 375.02 462.93 376.88 463.29 C 384.25 463.75 391.64 463.53 399.03 463.65 Z"/>
<path fill="#000000" opacity="1.00" d=" M 425.03 521.94 C 433.34 521.86 441.68 522.20 449.99 522.42 C 465.62 524.07 481.33 524.73 497.04 524.77 C 515.73 523.98 534.68 523.13 553.13 526.89 C 565.07 529.42 577.01 532.02 589.12 533.58 C 599.37 535.04 609.75 534.34 620.06 534.83 C 625.39 535.41 630.77 535.51 636.10 536.24 C 638.45 536.57 641.10 536.60 643.04 538.20 C 644.82 540.27 642.68 543.86 640.04 543.38 C 636.65 543.08 633.31 542.45 629.92 542.22 C 616.29 540.49 602.47 542.32 588.85 540.48 C 578.94 539.53 569.26 537.10 559.47 535.43 C 541.10 530.30 521.88 529.90 502.96 531.07 C 479.90 532.55 456.97 528.53 433.94 528.48 C 420.24 528.10 406.66 530.35 393.02 531.19 C 382.99 531.32 372.96 531.54 362.94 531.13 C 360.82 530.90 357.50 530.77 357.29 527.98 C 357.68 526.63 358.40 524.86 359.90 524.53 C 371.92 524.78 383.96 524.94 395.98 524.60 C 405.67 523.83 415.32 522.60 425.03 521.94 Z"/>
<path fill="#000000" opacity="1.00" d=" M 390.05 569.19 C 407.17 569.60 423.91 565.00 441.00 565.11 C 449.02 564.54 457.04 565.29 465.06 565.49 C 477.69 566.54 490.47 566.91 502.80 570.12 C 514.64 572.74 525.92 578.07 538.17 578.66 C 549.51 579.61 560.69 581.77 571.90 583.69 C 583.23 585.49 594.71 586.16 606.10 587.47 C 615.65 588.79 625.25 590.04 634.89 590.26 C 636.33 590.36 636.66 592.21 637.61 593.06 C 636.68 595.38 634.52 597.00 631.93 596.58 C 617.26 595.68 602.70 593.45 588.06 592.22 C 579.58 591.55 571.22 589.94 562.84 588.55 C 553.22 586.21 543.35 585.11 533.51 584.22 C 522.43 583.06 512.31 578.08 501.53 575.62 C 487.31 572.02 472.53 572.09 458.00 570.86 C 448.67 570.72 439.29 570.29 430.00 571.34 C 416.32 572.88 402.75 575.82 388.92 575.50 C 377.62 575.41 366.29 574.05 355.01 575.32 C 352.65 575.52 348.99 575.94 348.31 572.92 C 347.64 570.49 350.46 569.31 352.41 569.10 C 364.92 567.83 377.52 568.81 390.05 569.19 Z"/>
<path fill="#000000" opacity="1.00" d=" M 498.15 650.27 C 504.77 649.91 511.42 650.17 518.05 650.13 C 525.77 649.90 533.27 652.34 541.00 652.09 C 547.67 651.77 554.32 651.13 560.96 650.37 C 567.03 649.68 573.04 651.19 579.03 651.95 C 583.84 652.77 588.84 652.38 593.55 653.74 C 596.81 654.89 595.46 660.19 592.05 659.72 C 584.78 658.58 577.44 657.95 570.16 656.90 C 562.74 655.82 555.38 657.79 547.97 657.81 C 542.27 658.33 536.52 658.49 530.85 657.56 C 519.95 655.63 508.82 656.32 497.83 655.86 C 494.49 655.77 495.13 650.28 498.15 650.27 Z"/>
<path fill="#000000" opacity="1.00" d=" M 343.43 657.60 C 342.41 656.20 344.15 655.09 344.87 654.11 C 355.24 655.00 365.54 652.59 375.92 653.25 C 385.94 653.31 395.94 654.82 405.97 653.98 C 418.49 652.98 430.95 654.97 443.41 655.84 C 452.33 657.22 461.27 658.70 470.31 659.05 C 471.86 659.21 474.28 659.05 474.71 661.03 C 475.15 662.71 473.93 664.04 473.07 665.31 C 463.62 664.79 454.25 663.53 444.87 662.38 C 434.25 661.68 423.77 659.25 413.09 659.49 C 405.74 659.66 398.37 660.05 391.03 659.53 C 377.70 658.60 364.35 659.45 351.04 660.18 C 348.42 660.11 344.91 660.18 343.43 657.60 Z"/>
<path fill="#000000" opacity="1.00" d=" M 498.47 665.15 C 499.29 664.04 499.60 662.32 501.02 661.78 C 513.72 661.84 526.24 665.16 538.99 664.34 C 550.67 663.80 562.39 664.69 573.83 667.16 C 580.16 668.50 586.73 668.24 593.01 669.88 C 594.48 671.86 594.93 675.19 591.92 675.92 C 582.28 674.78 572.66 673.20 563.08 671.50 C 547.88 668.72 532.30 672.30 517.12 669.25 C 512.43 668.16 507.59 668.12 502.80 668.04 C 500.88 667.99 499.41 666.71 498.47 665.15 Z"/>
<path fill="#000000" opacity="1.00" d=" M 544.61 680.51 C 554.68 678.52 565.19 679.89 575.05 682.43 C 578.97 683.42 583.03 683.59 586.96 684.50 C 590.06 685.12 589.51 691.13 586.05 690.53 C 581.68 690.36 577.46 689.11 573.16 688.46 C 566.45 687.41 559.88 684.86 553.01 685.53 C 549.72 685.48 545.32 686.87 543.42 683.26 C 543.72 682.58 544.31 681.20 544.61 680.51 Z"/>
<path fill="#000000" opacity="1.00" d=" M 753.18 711.17 C 760.41 709.01 767.56 712.30 774.21 714.85 C 775.89 715.59 778.04 716.16 778.80 718.06 C 779.06 720.03 777.24 722.03 775.23 721.58 C 769.45 719.89 764.30 715.57 757.99 716.14 C 752.56 716.07 747.52 718.86 742.08 718.48 C 740.04 718.36 738.41 716.85 737.65 715.05 C 737.76 713.42 739.23 712.07 740.91 712.56 C 745.06 713.38 749.15 712.04 753.18 711.17 Z"/>
</g>
<g id="Group-nocolor">
<path fill="#f77024" opacity="1.00" d=" M 662.82 217.46 C 667.75 216.30 672.95 217.09 677.99 216.69 C 689.67 217.50 701.39 217.95 713.09 218.29 C 726.99 219.13 740.96 216.71 754.80 218.94 C 749.75 243.35 745.92 267.98 741.33 292.47 C 740.79 281.71 739.93 270.66 735.37 260.73 C 731.30 252.36 721.78 248.40 713.02 247.19 C 690.56 244.44 667.84 243.59 645.25 245.24 C 622.13 246.26 599.07 248.14 575.96 249.15 C 551.41 249.44 526.86 248.46 502.39 246.50 C 488.62 245.09 474.84 243.61 461.02 242.77 C 443.46 241.74 426.07 245.82 409.59 251.55 C 398.52 255.60 387.09 260.06 378.71 268.69 C 373.41 274.31 368.68 280.68 365.84 287.92 C 360.83 299.83 358.70 312.67 356.48 325.32 C 353.47 340.67 351.29 356.18 347.32 371.33 C 341.57 393.37 336.80 415.66 330.64 437.59 C 325.32 454.30 320.08 471.05 316.25 488.18 C 313.74 500.67 312.34 513.35 310.87 526.00 C 310.28 530.95 310.07 535.98 308.82 540.82 C 308.52 542.33 307.21 543.26 306.25 544.35 C 304.40 543.30 302.55 542.28 300.70 541.27 C 296.58 546.97 293.59 553.39 290.84 559.85 C 284.85 575.37 279.87 591.25 275.17 607.20 C 272.64 617.41 271.03 627.81 269.19 638.16 C 266.97 649.95 264.22 661.96 265.92 674.01 C 267.40 685.77 272.09 697.86 281.69 705.33 C 290.53 712.89 302.04 716.02 313.08 718.78 C 336.15 723.12 358.89 729.16 382.11 732.74 C 414.90 737.07 448.04 737.86 480.97 740.69 C 485.82 740.58 490.67 740.57 495.50 741.20 C 515.66 741.52 535.83 740.81 555.99 740.49 C 579.28 739.87 603.29 737.15 624.21 726.16 C 629.73 723.29 633.75 718.39 637.51 713.57 C 644.07 705.15 647.16 694.77 650.91 684.94 C 657.67 663.24 663.63 641.30 670.50 619.64 C 676.63 598.52 682.69 577.37 689.37 556.42 C 691.13 550.16 693.36 544.03 694.76 537.67 C 695.36 534.91 696.23 532.19 697.72 529.77 C 697.78 531.51 697.52 533.24 697.17 534.96 C 693.21 555.67 690.29 576.56 686.14 597.24 C 681.56 622.09 678.50 647.19 673.90 672.04 C 671.12 687.36 668.48 702.71 666.43 718.15 C 664.96 727.25 663.18 736.50 658.74 744.68 C 655.77 750.01 650.61 753.65 645.35 756.48 C 636.50 760.65 626.50 760.84 616.95 761.93 C 606.16 762.72 595.35 761.70 584.57 761.22 C 561.53 759.12 538.55 756.59 515.49 754.71 C 503.65 754.19 491.81 753.69 479.97 753.27 C 463.71 751.66 447.41 750.14 431.05 750.33 C 417.70 749.92 404.34 749.57 391.00 748.85 C 377.95 747.41 364.96 745.61 351.94 743.93 C 338.09 741.31 324.03 739.92 310.11 737.75 C 298.49 735.65 287.02 732.54 276.09 728.06 C 266.50 723.49 257.59 715.66 254.87 705.02 C 250.27 690.57 253.77 675.35 257.01 661.02 C 263.50 634.64 269.60 608.18 276.56 581.92 C 278.54 573.10 281.43 564.46 282.90 555.54 C 284.20 552.80 284.64 549.78 285.31 546.86 C 291.64 523.86 296.65 500.52 302.61 477.43 C 305.26 467.98 307.99 458.57 310.42 449.07 C 316.87 427.16 323.43 405.28 329.13 383.16 C 332.22 371.45 335.85 359.90 338.71 348.13 C 341.78 337.60 342.90 326.61 345.98 316.08 C 349.45 300.31 354.02 284.82 357.73 269.11 C 361.80 254.05 365.85 238.96 370.65 224.12 C 377.39 225.11 384.15 226.00 390.93 226.73 C 397.35 227.50 403.66 225.73 410.03 225.28 C 426.90 222.71 443.94 221.32 460.99 220.84 C 472.03 220.98 483.10 219.96 494.11 221.25 C 508.07 222.29 522.14 222.89 536.06 221.01 C 544.40 220.27 552.63 218.31 561.04 218.50 C 573.64 217.53 586.31 217.41 598.94 217.88 C 615.06 219.36 631.29 218.95 647.43 218.05 C 652.48 219.22 658.01 219.93 662.82 217.46 Z"/>
<path fill="#f77024" opacity="1.00" d=" M 736.15 602.80 C 740.76 603.67 745.30 604.84 749.85 605.99 C 758.11 607.56 766.55 607.59 774.85 608.81 C 778.31 609.37 781.92 608.74 785.31 609.73 C 788.97 611.57 793.12 611.02 797.07 610.92 C 801.75 610.74 806.44 610.93 811.13 610.86 C 810.76 610.53 810.02 609.87 809.65 609.55 C 817.29 608.36 824.97 607.44 832.71 607.25 C 829.84 619.13 826.74 630.94 823.87 642.82 C 822.90 645.87 822.17 648.99 821.99 652.20 C 795.64 650.08 769.23 648.85 742.82 647.82 C 740.50 632.83 737.90 617.86 736.15 602.80 Z"/>
</g>
<g id="Group-nocolor">
<path fill="rgba(0,0,0,0)" opacity="1.00" d=" M 647.43 218.05 C 652.52 217.35 657.68 217.45 662.82 217.46 C 658.01 219.93 652.48 219.22 647.43 218.05 Z"/>
</g>
<g id="Group-nocolor">
<path fill="rgba(0,0,0,0)" opacity="1.00" d=" M 409.59 251.55 C 426.07 245.82 443.46 241.74 461.02 242.77 C 474.84 243.61 488.62 245.09 502.39 246.50 C 526.86 248.46 551.41 249.44 575.96 249.15 C 599.07 248.14 622.13 246.26 645.25 245.24 C 667.84 243.59 690.56 244.44 713.02 247.19 C 721.78 248.40 731.30 252.36 735.37 260.73 C 739.93 270.66 740.79 281.71 741.33 292.47 C 735.58 327.54 728.32 362.38 722.63 397.48 C 719.01 421.13 714.32 444.60 709.47 468.03 C 705.55 488.35 701.81 508.71 698.10 529.08 C 698.00 529.25 697.81 529.60 697.72 529.77 C 696.23 532.19 695.36 534.91 694.76 537.67 C 693.36 544.03 691.13 550.16 689.37 556.42 C 682.69 577.37 676.63 598.52 670.50 619.64 C 663.63 641.30 657.67 663.24 650.91 684.94 C 647.16 694.77 644.07 705.15 637.51 713.57 C 633.75 718.39 629.73 723.29 624.21 726.16 C 603.29 737.15 579.28 739.87 555.99 740.49 C 535.83 740.81 515.66 741.52 495.50 741.20 C 490.67 740.57 485.82 740.58 480.97 740.69 C 448.04 737.86 414.90 737.07 382.11 732.74 C 358.89 729.16 336.15 723.12 313.08 718.78 C 302.04 716.02 290.53 712.89 281.69 705.33 C 272.09 697.86 267.40 685.77 265.92 674.01 C 264.22 661.96 266.97 649.95 269.19 638.16 C 271.03 627.81 272.64 617.41 275.17 607.20 C 279.87 591.25 284.85 575.37 290.84 559.85 C 293.59 553.39 296.58 546.97 300.70 541.27 C 302.55 542.28 304.40 543.30 306.25 544.35 C 307.21 543.26 308.52 542.33 308.82 540.82 C 310.07 535.98 310.28 530.95 310.87 526.00 C 312.34 513.35 313.74 500.67 316.25 488.18 C 320.08 471.05 325.32 454.30 330.64 437.59 C 336.80 415.66 341.57 393.37 347.32 371.33 C 351.29 356.18 353.47 340.67 356.48 325.32 C 358.70 312.67 360.83 299.83 365.84 287.92 C 368.68 280.68 373.41 274.31 378.71 268.69 C 387.09 260.06 398.52 255.60 409.59 251.55 M 460.84 282.86 C 457.26 284.12 456.83 288.32 455.80 291.44 C 453.05 302.90 450.26 314.35 447.60 325.83 C 446.60 332.63 444.00 339.08 443.32 345.94 C 442.03 345.02 442.39 343.31 442.16 341.97 C 440.54 328.05 438.13 314.24 435.32 300.51 C 434.21 295.73 434.00 290.69 432.12 286.10 C 428.93 281.36 420.20 282.91 418.52 288.38 C 414.66 300.70 412.43 313.45 409.02 325.89 C 405.96 338.97 401.91 351.80 398.91 364.90 C 398.35 367.56 397.66 370.25 397.82 372.99 C 397.79 377.18 403.32 379.35 406.65 377.58 C 409.59 376.32 409.96 372.74 410.83 370.05 C 415.23 352.60 419.84 335.21 424.08 317.72 C 424.40 317.94 425.04 318.39 425.37 318.62 C 426.93 335.13 428.80 351.64 430.94 368.09 C 431.50 371.33 431.79 375.12 434.61 377.29 C 437.98 379.23 442.58 380.24 446.06 378.01 C 450.20 374.58 449.98 368.80 451.71 364.13 C 455.65 346.23 460.44 328.54 464.80 310.75 C 466.61 302.85 469.92 295.14 469.83 286.92 C 469.65 282.70 464.09 281.37 460.84 282.86 M 480.23 287.18 C 478.36 291.98 478.07 297.20 476.69 302.15 C 472.09 324.55 465.93 346.60 460.78 368.87 C 459.62 373.11 459.96 379.65 465.45 380.40 C 476.28 381.44 487.20 381.47 498.08 381.56 C 504.38 381.63 506.58 371.32 501.14 368.56 C 492.78 366.53 484.07 367.56 475.57 367.34 C 478.15 356.55 480.26 345.59 483.76 335.07 C 490.17 334.70 496.73 335.31 503.01 333.72 C 507.95 332.63 508.16 324.37 503.41 322.88 C 497.45 322.23 491.43 322.50 485.45 322.18 C 487.54 314.18 489.02 306.04 491.01 298.02 C 491.53 296.79 491.67 294.59 493.43 294.57 C 500.94 293.95 508.50 294.91 516.01 294.33 C 519.74 293.84 520.45 289.83 521.49 286.91 C 520.21 284.92 518.81 282.27 516.10 282.23 C 508.10 281.76 500.07 282.02 492.06 281.92 C 487.73 281.95 482.39 282.92 480.23 287.18 M 633.50 282.61 C 626.05 284.25 619.15 288.72 615.30 295.41 C 610.69 303.55 608.78 313.82 612.23 322.73 C 616.46 333.15 627.22 339.21 631.25 349.76 C 634.21 357.31 630.16 367.68 621.87 369.64 C 618.11 370.91 613.72 369.76 610.94 366.99 C 609.54 364.58 609.35 361.62 607.79 359.29 C 604.39 356.02 598.06 357.81 596.38 362.07 C 594.02 367.17 595.53 373.57 599.59 377.36 C 603.03 380.44 607.50 382.11 611.94 383.15 C 626.93 385.96 643.03 376.26 647.43 361.64 C 649.76 353.00 648.84 343.01 643.30 335.73 C 638.90 329.52 632.25 325.40 627.69 319.35 C 621.59 311.59 625.21 298.01 634.90 295.14 C 638.13 293.76 642.10 295.80 642.90 299.21 C 643.96 301.92 643.59 305.85 646.81 307.10 C 649.88 308.17 654.27 308.53 656.40 305.54 C 658.77 301.06 657.46 295.64 655.66 291.20 C 651.80 283.22 641.64 280.31 633.50 282.61 M 527.73 290.50 C 526.40 301.84 525.87 313.24 524.92 324.61 C 524.24 341.41 521.65 358.18 522.94 375.01 C 523.96 382.61 535.84 383.54 539.19 377.24 C 544.78 367.98 549.02 357.98 553.02 347.95 C 553.39 344.89 555.08 347.71 554.70 348.93 C 554.96 354.93 555.30 360.94 555.98 366.92 C 556.48 370.86 556.34 375.06 558.42 378.60 C 561.56 384.59 572.15 383.61 574.20 377.16 C 584.97 349.28 594.93 321.08 603.63 292.48 C 604.09 290.55 605.03 288.20 603.35 286.59 C 601.50 283.90 597.65 284.38 595.01 285.40 C 591.20 287.09 590.33 291.59 588.93 295.08 C 582.27 315.68 575.65 336.36 567.58 356.44 C 567.38 356.60 566.97 356.92 566.77 357.08 C 566.91 347.43 566.22 337.75 565.30 328.15 C 564.96 324.20 560.67 321.79 557.01 322.76 C 554.02 322.94 552.36 325.72 551.00 328.02 C 545.96 337.14 541.16 346.40 536.86 355.90 C 535.86 352.65 536.50 349.22 536.61 345.90 C 537.47 327.55 540.05 309.35 541.10 291.02 C 541.19 288.45 540.67 285.07 537.87 284.12 C 533.62 282.71 528.24 285.95 527.73 290.50 M 389.82 414.63 C 389.45 415.27 388.71 416.54 388.34 417.17 C 389.27 418.32 390.23 419.99 391.98 419.81 C 399.33 420.02 406.69 419.54 414.05 419.85 C 423.58 420.37 432.43 424.65 441.98 425.06 C 450.99 425.89 460.01 423.78 469.01 425.03 C 479.66 426.37 490.22 428.93 501.02 428.64 C 514.97 428.46 529.00 426.68 542.90 428.61 C 548.98 429.40 555.17 429.10 561.17 430.51 C 569.33 432.23 577.72 431.84 585.95 430.92 C 595.62 430.16 605.28 427.69 615.01 429.13 C 620.48 429.61 625.56 431.88 630.94 432.81 C 635.57 433.77 640.31 433.58 645.01 433.64 C 647.29 433.57 649.76 433.86 651.81 432.61 C 652.72 431.10 653.57 427.62 650.92 427.49 C 646.97 427.01 642.98 427.58 639.02 427.32 C 630.47 427.16 622.61 423.18 614.13 422.49 C 597.07 421.41 580.11 427.38 563.11 424.21 C 555.09 422.96 547.00 422.42 538.94 421.71 C 521.28 420.42 503.50 424.08 485.93 420.97 C 477.00 419.66 468.03 417.88 458.96 418.39 C 450.80 418.85 442.38 419.74 434.41 417.40 C 428.70 415.80 422.92 414.42 417.03 413.73 C 410.05 413.13 403.08 414.38 396.10 414.22 C 393.99 414.15 391.89 414.26 389.82 414.63 M 379.74 440.76 C 379.51 442.45 378.95 444.91 381.08 445.62 C 387.54 446.34 394.08 445.19 400.53 446.23 C 409.78 447.29 418.66 450.52 427.98 451.15 C 440.70 451.69 453.42 450.99 466.12 450.26 C 478.75 449.60 491.32 447.75 504.00 448.16 C 516.45 447.89 528.57 451.62 541.01 451.58 C 551.68 451.58 562.37 451.47 573.01 450.56 C 585.67 449.51 598.60 449.66 610.96 452.91 C 619.75 455.21 628.74 457.15 637.89 456.76 C 640.75 456.44 642.07 451.96 639.11 450.85 C 633.46 450.02 627.65 450.31 622.06 448.97 C 610.31 445.90 598.19 444.24 586.05 443.86 C 571.71 444.63 557.37 445.65 542.99 445.35 C 531.83 445.77 521.04 442.34 509.93 442.07 C 498.98 442.01 488.01 442.22 477.12 443.53 C 463.49 445.33 449.72 445.13 436.00 445.26 C 429.60 445.35 423.17 444.73 416.99 443.02 C 404.92 439.67 392.11 438.74 379.74 440.76 M 399.03 463.65 C 391.64 463.53 384.25 463.75 376.88 463.29 C 375.02 462.93 374.20 464.79 373.36 466.03 C 374.33 467.19 375.13 468.79 376.78 469.13 C 381.44 470.09 386.25 469.57 390.98 469.92 C 402.02 470.69 413.00 468.91 423.95 467.88 C 431.68 467.46 439.48 467.64 447.13 468.90 C 460.36 471.15 473.57 473.69 486.97 474.78 C 504.27 476.04 521.70 476.43 539.00 474.82 C 546.99 475.20 555.00 475.50 562.93 476.65 C 572.35 477.45 581.54 479.88 590.98 480.53 C 604.27 482.11 617.56 484.34 630.99 483.74 C 637.07 483.30 643.02 484.97 649.08 485.06 C 652.32 484.97 653.96 479.66 650.26 478.82 C 635.60 476.40 620.58 478.28 605.93 475.64 C 593.32 474.10 580.67 472.78 568.17 470.47 C 555.84 468.91 543.37 468.01 530.94 468.81 C 518.00 469.80 505.02 469.14 492.09 468.56 C 475.51 467.63 459.31 463.75 442.87 461.73 C 428.21 460.06 413.65 463.29 399.03 463.65 M 369.66 486.00 C 370.02 487.51 371.18 488.85 372.76 489.12 C 376.78 489.43 380.82 489.30 384.83 489.79 C 398.48 491.34 412.24 490.48 425.94 490.73 C 449.05 493.01 471.63 499.56 494.95 500.09 C 506.96 499.64 518.99 499.38 531.00 498.79 C 537.48 498.37 543.82 499.90 550.20 500.78 C 552.21 499.44 552.64 495.92 550.17 494.85 C 541.64 492.63 532.77 493.07 524.07 493.65 C 511.00 494.01 497.88 494.74 484.84 493.49 C 469.82 491.42 454.91 488.64 439.97 486.06 C 431.07 484.77 422.05 484.16 413.06 484.63 C 399.32 485.08 385.67 483.07 371.94 483.14 C 371.13 484.04 369.90 484.70 369.66 486.00 M 563.10 500.86 C 567.23 502.12 571.73 502.34 576.00 501.74 C 578.49 501.43 578.63 497.37 576.01 497.12 C 571.95 496.63 567.83 496.64 563.75 496.30 C 563.04 497.69 561.29 499.52 563.10 500.86 M 425.03 521.94 C 415.32 522.60 405.67 523.83 395.98 524.60 C 383.96 524.94 371.92 524.78 359.90 524.53 C 358.40 524.86 357.68 526.63 357.29 527.98 C 357.50 530.77 360.82 530.90 362.94 531.13 C 372.96 531.54 382.99 531.32 393.02 531.19 C 406.66 530.35 420.24 528.10 433.94 528.48 C 456.97 528.53 479.90 532.55 502.96 531.07 C 521.88 529.90 541.10 530.30 559.47 535.43 C 569.26 537.10 578.94 539.53 588.85 540.48 C 602.47 542.32 616.29 540.49 629.92 542.22 C 633.31 542.45 636.65 543.08 640.04 543.38 C 642.68 543.86 644.82 540.27 643.04 538.20 C 641.10 536.60 638.45 536.57 636.10 536.24 C 630.77 535.51 625.39 535.41 620.06 534.83 C 609.75 534.34 599.37 535.04 589.12 533.58 C 577.01 532.02 565.07 529.42 553.13 526.89 C 534.68 523.13 515.73 523.98 497.04 524.77 C 481.33 524.73 465.62 524.07 449.99 522.42 C 441.68 522.20 433.34 521.86 425.03 521.94 M 354.57 546.99 C 355.20 548.96 356.72 550.65 358.96 550.43 C 370.98 550.61 382.92 552.38 394.95 551.90 C 416.00 553.18 436.92 548.52 457.98 550.10 C 470.18 550.34 482.38 550.64 494.58 550.98 C 521.71 551.67 547.80 561.27 575.02 560.88 C 592.04 561.79 609.29 560.21 626.08 563.80 C 629.02 564.33 631.91 565.22 634.88 565.62 C 637.74 565.76 638.48 561.01 635.77 560.20 C 626.79 557.33 617.25 557.48 607.96 556.44 C 601.66 556.10 595.34 556.56 589.05 556.06 C 579.39 555.28 569.64 555.63 560.05 553.99 C 536.62 551.57 513.76 544.50 490.07 544.64 C 477.70 544.10 465.31 544.63 452.96 543.75 C 438.61 543.30 424.33 544.81 410.01 545.24 C 392.97 545.65 375.97 543.96 358.94 543.97 C 356.81 543.67 355.55 545.41 354.57 546.99 M 390.05 569.19 C 377.52 568.81 364.92 567.83 352.41 569.10 C 350.46 569.31 347.64 570.49 348.31 572.92 C 348.99 575.94 352.65 575.52 355.01 575.32 C 366.29 574.05 377.62 575.41 388.92 575.50 C 402.75 575.82 416.32 572.88 430.00 571.34 C 439.29 570.29 448.67 570.72 458.00 570.86 C 472.53 572.09 487.31 572.02 501.53 575.62 C 512.31 578.08 522.43 583.06 533.51 584.22 C 543.35 585.11 553.22 586.21 562.84 588.55 C 571.22 589.94 579.58 591.55 588.06 592.22 C 602.70 593.45 617.26 595.68 631.93 596.58 C 634.52 597.00 636.68 595.38 637.61 593.06 C 636.66 592.21 636.33 590.36 634.89 590.26 C 625.25 590.04 615.65 588.79 606.10 587.47 C 594.71 586.16 583.23 585.49 571.90 583.69 C 560.69 581.77 549.51 579.61 538.17 578.66 C 525.92 578.07 514.64 572.74 502.80 570.12 C 490.47 566.91 477.69 566.54 465.06 565.49 C 457.04 565.29 449.02 564.54 441.00 565.11 C 423.91 565.00 407.17 569.60 390.05 569.19 M 376.94 589.59 C 365.25 588.67 353.50 589.90 341.81 588.93 C 340.10 588.98 339.54 590.81 338.66 591.94 C 339.76 593.29 341.02 594.83 342.96 594.75 C 353.97 595.78 365.03 594.87 376.05 595.29 C 389.73 595.88 403.33 593.64 417.00 593.67 C 425.40 593.72 433.70 595.18 442.06 595.88 C 454.45 597.14 466.63 599.97 479.06 600.88 C 487.67 601.86 496.35 602.24 505.02 602.19 C 519.55 602.93 534.16 604.52 548.07 608.98 C 558.82 611.39 569.96 612.18 580.95 611.32 C 589.72 610.42 597.65 615.14 606.07 616.62 C 609.05 616.64 609.98 613.47 609.15 611.07 C 604.10 609.57 599.09 607.98 594.08 606.37 C 588.21 604.54 582.01 605.25 576.00 605.69 C 566.79 605.75 557.48 605.17 548.59 602.65 C 535.21 598.09 520.97 597.22 507.00 595.89 C 492.56 596.08 478.11 595.02 463.87 592.60 C 451.64 590.60 439.25 589.89 426.96 588.38 C 410.28 586.42 393.65 590.75 376.94 589.59 M 354.90 608.34 C 350.33 609.36 345.65 609.47 341.00 609.73 C 339.48 609.70 337.64 610.40 337.30 612.05 C 336.53 613.81 338.57 615.41 340.14 615.63 C 346.99 616.50 353.79 614.87 360.49 613.64 C 365.65 612.62 370.92 612.35 376.16 611.97 C 383.94 611.72 391.62 613.41 399.09 615.42 C 411.55 618.18 424.36 616.69 436.97 616.32 C 446.20 615.86 454.07 621.50 463.00 622.68 C 464.73 622.89 465.43 620.85 466.49 619.89 C 465.62 618.44 464.70 616.79 462.93 616.38 C 457.20 614.79 451.80 612.09 445.92 611.02 C 435.36 609.00 424.67 611.30 414.04 610.81 C 404.79 611.13 396.06 607.59 387.00 606.41 C 376.28 605.82 365.42 606.02 354.90 608.34 M 478.61 621.97 C 481.45 626.36 487.51 625.08 491.97 625.39 C 494.94 625.99 496.73 622.98 496.20 620.37 C 491.49 619.57 486.68 620.00 481.97 619.12 C 480.07 618.51 479.49 620.87 478.61 621.97 M 498.15 650.27 C 495.13 650.28 494.49 655.77 497.83 655.86 C 508.82 656.32 519.95 655.63 530.85 657.56 C 536.52 658.49 542.27 658.33 547.97 657.81 C 555.38 657.79 562.74 655.82 570.16 656.90 C 577.44 657.95 584.78 658.58 592.05 659.72 C 595.46 660.19 596.81 654.89 593.55 653.74 C 588.84 652.38 583.84 652.77 579.03 651.95 C 573.04 651.19 567.03 649.68 560.96 650.37 C 554.32 651.13 547.67 651.77 541.00 652.09 C 533.27 652.34 525.77 649.90 518.05 650.13 C 511.42 650.17 504.77 649.91 498.15 650.27 M 343.43 657.60 C 344.91 660.18 348.42 660.11 351.04 660.18 C 364.35 659.45 377.70 658.60 391.03 659.53 C 398.37 660.05 405.74 659.66 413.09 659.49 C 423.77 659.25 434.25 661.68 444.87 662.38 C 454.25 663.53 463.62 664.79 473.07 665.31 C 473.93 664.04 475.15 662.71 474.71 661.03 C 474.28 659.05 471.86 659.21 470.31 659.05 C 461.27 658.70 452.33 657.22 443.41 655.84 C 430.95 654.97 418.49 652.98 405.97 653.98 C 395.94 654.82 385.94 653.31 375.92 653.25 C 365.54 652.59 355.24 655.00 344.87 654.11 C 344.15 655.09 342.41 656.20 343.43 657.60 M 498.47 665.15 C 499.41 666.71 500.88 667.99 502.80 668.04 C 507.59 668.12 512.43 668.16 517.12 669.25 C 532.30 672.30 547.88 668.72 563.08 671.50 C 572.66 673.20 582.28 674.78 591.92 675.92 C 594.93 675.19 594.48 671.86 593.01 669.88 C 586.73 668.24 580.16 668.50 573.83 667.16 C 562.39 664.69 550.67 663.80 538.99 664.34 C 526.24 665.16 513.72 661.84 501.02 661.78 C 499.60 662.32 499.29 664.04 498.47 665.15 M 341.79 671.97 C 342.91 674.26 345.69 674.34 347.90 674.30 C 358.94 673.84 369.93 675.59 380.96 675.13 C 389.06 674.83 397.20 675.47 405.06 677.50 C 407.91 678.07 409.41 674.71 408.68 672.35 C 407.82 671.82 406.94 671.33 406.04 670.90 C 393.23 667.82 380.00 669.53 366.98 669.15 C 359.69 668.20 352.34 668.53 345.01 668.18 C 342.85 667.55 341.30 670.07 341.79 671.97 M 439.37 672.35 C 438.50 674.53 440.99 676.14 442.91 676.11 C 449.73 676.54 456.49 677.62 463.12 679.25 C 475.86 682.17 489.00 680.51 501.91 681.74 C 505.96 682.02 509.98 682.83 514.05 682.87 C 515.83 682.06 515.99 680.10 515.99 678.41 C 515.59 677.93 514.77 676.96 514.37 676.48 C 502.98 675.01 491.50 674.66 480.04 674.85 C 469.09 675.33 458.84 670.62 447.97 670.31 C 445.11 670.32 440.85 668.97 439.37 672.35 M 544.61 680.51 C 544.31 681.20 543.72 682.58 543.42 683.26 C 545.32 686.87 549.72 685.48 553.01 685.53 C 559.88 684.86 566.45 687.41 573.16 688.46 C 577.46 689.11 581.68 690.36 586.05 690.53 C 589.51 691.13 590.06 685.12 586.96 684.50 C 583.03 683.59 578.97 683.42 575.05 682.43 C 565.19 679.89 554.68 678.52 544.61 680.51 M 340.35 686.47 C 343.43 687.69 346.80 686.45 350.00 686.52 C 360.13 685.72 369.94 688.92 379.96 689.59 C 391.33 690.68 402.83 689.60 414.15 691.27 C 425.38 693.57 436.59 696.86 448.10 697.11 C 448.33 695.57 449.27 693.95 448.65 692.42 C 445.68 690.94 442.24 691.08 439.06 690.38 C 426.49 687.86 413.97 684.00 401.01 684.54 C 387.55 684.96 374.20 683.04 360.99 680.69 C 353.92 679.47 346.79 681.47 339.74 680.49 C 338.04 682.27 338.05 685.21 340.35 686.47 Z"/>
</g>
<g id="Group-nocolor">
<path fill="rgba(0,0,0,0)" opacity="1.00" d=" M 753.29 269.13 C 753.75 264.82 754.73 260.61 755.84 256.43 C 764.30 257.74 773.08 258.86 780.59 263.32 C 782.52 264.24 781.66 266.49 781.52 268.12 C 778.29 287.01 774.27 305.74 770.74 324.56 C 768.97 335.93 766.39 347.14 764.27 358.45 C 761.42 376.58 756.93 394.40 753.65 412.45 C 749.44 429.32 746.66 446.50 743.26 463.54 C 740.46 475.61 738.75 487.90 735.98 499.98 C 728.73 536.38 720.51 572.57 713.28 608.98 C 711.51 617.70 709.44 626.35 707.63 635.06 C 700.64 661.74 694.63 688.67 688.40 715.53 C 686.25 722.60 685.10 729.95 682.52 736.88 C 678.86 748.11 670.36 757.92 659.48 762.65 C 650.43 765.58 640.94 767.43 631.38 766.64 C 636.26 765.72 641.30 765.54 646.07 764.07 C 657.72 759.48 667.02 749.20 670.14 737.03 C 675.52 720.09 675.92 702.17 679.39 684.84 C 682.71 666.32 686.00 647.80 688.72 629.18 C 691.44 609.74 695.74 590.57 698.60 571.15 C 703.10 545.92 708.18 520.76 711.64 495.37 L 712.41 495.44 C 714.63 476.02 719.78 457.09 723.30 437.89 C 729.37 399.59 736.43 361.48 743.18 323.30 C 744.17 318.54 745.28 313.80 745.81 308.96 C 748.11 295.65 751.02 282.45 753.29 269.13 M 769.37 265.35 C 767.45 271.73 766.79 278.40 765.47 284.91 C 762.60 298.21 759.27 311.41 757.42 324.91 C 753.67 351.65 747.44 377.94 742.32 404.44 C 739.27 422.42 735.00 440.17 731.77 458.12 C 729.96 466.68 727.87 475.22 727.01 483.95 C 724.55 498.28 721.64 512.53 719.91 526.97 C 719.26 528.71 720.83 529.74 721.96 530.68 C 725.48 528.79 725.13 524.35 725.78 520.97 C 726.58 513.47 728.07 506.06 728.78 498.54 C 730.19 489.61 732.35 480.82 734.18 471.97 C 736.40 463.05 737.44 453.88 739.93 445.02 C 746.88 411.76 753.40 378.40 759.82 345.04 C 763.23 319.11 769.26 293.66 774.16 268.00 C 774.41 266.39 774.47 264.67 773.84 263.14 C 771.98 261.30 769.84 263.45 769.37 265.35 M 757.28 284.95 C 749.43 315.56 743.57 346.65 738.77 377.88 C 736.70 390.57 734.27 403.22 732.79 416.00 C 732.62 417.62 733.81 420.92 735.92 419.20 C 737.79 416.50 738.45 413.19 739.04 410.02 C 742.80 387.99 745.97 365.86 750.30 343.94 C 753.73 322.57 758.20 301.37 763.64 280.43 C 764.27 277.03 765.63 273.38 764.22 270.00 C 763.62 270.05 762.42 270.14 761.82 270.18 C 758.46 274.30 758.68 280.03 757.28 284.95 M 719.39 486.88 C 714.88 505.64 711.68 524.72 709.49 543.88 C 709.09 546.85 707.59 550.59 711.04 552.30 C 711.81 551.40 713.15 550.76 713.28 549.47 C 715.33 529.25 719.26 509.29 723.58 489.46 C 723.93 487.35 725.95 484.00 722.89 483.06 C 720.40 481.40 719.28 485.03 719.39 486.88 M 707.08 575.27 C 710.84 573.34 712.39 566.26 707.95 564.36 C 704.56 566.59 703.93 572.61 707.08 575.27 M 703.72 593.46 C 705.01 592.98 706.71 592.92 707.48 591.58 C 709.15 589.49 708.28 585.11 705.09 585.43 C 701.56 586.74 702.80 590.82 703.72 593.46 Z"/>
<path fill="rgba(0,0,0,0)" opacity="1.00" d=" M 812.52 382.43 C 815.80 380.16 819.16 377.80 823.05 376.72 C 828.58 375.58 834.97 379.15 835.96 384.93 C 837.51 394.30 835.30 403.92 831.58 412.54 C 830.45 415.89 827.89 419.22 828.71 422.90 C 829.43 425.78 832.86 425.25 835.13 425.56 C 839.51 425.61 843.80 428.61 845.23 432.76 C 847.80 444.12 842.88 455.96 835.24 464.30 C 830.23 470.28 824.28 475.45 817.80 479.79 C 810.01 484.94 802.72 490.99 796.81 498.25 C 800.12 487.68 802.55 476.70 802.87 465.60 C 812.25 459.76 822.50 455.21 830.98 448.01 C 833.53 445.85 836.39 444.07 838.82 441.76 C 840.30 440.41 840.36 437.20 838.11 436.60 C 835.12 437.32 833.03 439.81 830.53 441.43 C 822.25 447.78 813.25 453.07 804.22 458.26 C 803.88 448.99 803.06 439.74 802.21 430.50 C 804.49 428.66 806.03 426.14 807.71 423.78 C 813.59 415.28 819.59 406.87 825.20 398.18 C 826.05 396.94 826.58 395.49 826.71 393.98 C 825.62 391.42 822.29 392.33 821.36 394.48 C 815.00 404.80 807.39 414.33 801.43 424.92 C 800.97 416.52 797.76 408.55 797.11 400.17 C 801.25 393.51 805.94 386.92 812.52 382.43 Z"/>
<path fill="rgba(0,0,0,0)" opacity="1.00" d=" M 757.68 428.05 C 768.97 431.42 775.00 442.12 782.73 450.07 C 786.62 454.98 791.56 459.66 798.05 460.51 C 798.01 460.83 797.91 461.49 797.86 461.82 C 792.03 460.44 786.81 457.28 780.93 456.08 C 779.11 455.19 777.75 456.99 776.41 457.85 C 777.26 459.14 777.84 460.87 779.42 461.48 C 785.47 464.06 791.77 466.76 798.52 465.89 C 798.01 479.28 792.71 491.83 790.49 504.90 C 786.42 503.50 783.00 500.82 779.41 498.53 C 770.41 492.64 765.77 482.23 757.02 476.06 C 754.73 474.48 752.33 472.54 749.42 472.57 C 752.45 457.78 755.23 442.95 757.68 428.05 Z"/>
<path fill="rgba(0,0,0,0)" opacity="1.00" d=" M 747.51 479.87 C 756.37 484.19 761.71 492.75 768.67 499.33 C 773.84 505.06 781.13 507.99 787.99 511.13 C 787.34 519.88 785.88 528.71 787.47 537.46 C 780.22 535.73 773.38 532.31 768.18 526.90 C 764.71 523.51 761.34 519.78 759.62 515.16 C 758.41 512.21 758.77 508.64 756.41 506.21 C 754.56 506.48 751.99 506.43 751.71 508.85 C 752.25 517.41 756.11 525.77 762.47 531.55 C 768.84 535.38 775.27 539.08 782.28 541.64 C 778.28 541.38 774.42 540.01 771.00 537.98 C 768.34 536.16 765.93 533.99 763.07 532.50 C 762.39 533.36 761.71 534.24 761.05 535.11 C 766.77 543.78 777.87 548.22 787.96 545.42 C 788.17 552.29 790.47 558.97 790.16 565.89 C 779.78 564.72 769.38 563.24 759.23 560.76 C 750.50 557.86 742.43 553.31 734.14 549.39 C 735.81 536.48 739.42 523.90 741.63 511.07 C 743.83 500.72 745.58 490.28 747.51 479.87 Z"/>
<path fill="rgba(0,0,0,0)" opacity="1.00" d=" M 830.76 481.79 C 836.09 480.41 842.69 481.01 846.38 485.56 C 851.16 490.78 851.82 498.34 850.95 505.07 C 848.98 520.76 841.49 535.39 831.24 547.30 C 824.38 555.47 816.03 563.68 805.14 565.68 C 801.71 566.57 798.14 566.43 794.64 566.59 C 794.76 560.00 793.64 553.50 792.66 547.01 C 792.50 544.74 791.99 541.57 794.33 540.23 C 799.66 536.66 805.77 534.51 811.23 531.14 C 819.55 525.93 828.12 521.05 835.73 514.81 C 837.93 512.79 840.19 510.75 841.58 508.07 C 841.17 507.54 840.36 506.49 839.95 505.97 C 835.56 506.24 832.96 510.33 829.44 512.46 C 817.35 520.72 804.75 528.28 791.78 535.07 C 791.05 526.70 791.59 518.28 792.94 510.00 C 797.14 507.23 799.98 502.97 803.84 499.79 C 812.09 492.83 820.27 485.20 830.76 481.79 Z"/>
<path fill="rgba(0,0,0,0)" opacity="1.00" d=" M 723.72 594.91 C 724.76 593.45 724.86 591.63 725.29 589.95 C 725.06 593.19 725.36 597.23 728.68 598.83 C 729.14 608.63 731.58 618.20 732.73 627.92 C 733.49 634.05 734.50 640.15 735.47 646.25 C 728.04 645.74 720.61 645.06 713.16 644.89 C 717.01 630.10 719.70 615.01 723.23 600.16 C 723.39 598.41 723.54 596.66 723.72 594.91 Z"/>
</g>
<g id="Group-nocolor">
<path fill="#000000" opacity="1.00" d=" M 769.37 265.35 C 769.84 263.45 771.98 261.30 773.84 263.14 C 774.47 264.67 774.41 266.39 774.16 268.00 C 769.26 293.66 763.23 319.11 759.82 345.04 C 753.40 378.40 746.88 411.76 739.93 445.02 C 737.44 453.88 736.40 463.05 734.18 471.97 C 732.35 480.82 730.19 489.61 728.78 498.54 C 728.07 506.06 726.58 513.47 725.78 520.97 C 725.13 524.35 725.48 528.79 721.96 530.68 C 720.83 529.74 719.26 528.71 719.91 526.97 C 721.64 512.53 724.55 498.28 727.01 483.95 C 727.87 475.22 729.96 466.68 731.77 458.12 C 735.00 440.17 739.27 422.42 742.32 404.44 C 747.44 377.94 753.67 351.65 757.42 324.91 C 759.27 311.41 762.60 298.21 765.47 284.91 C 766.79 278.40 767.45 271.73 769.37 265.35 Z"/>
<path fill="#000000" opacity="1.00" d=" M 757.28 284.95 C 758.68 280.03 758.46 274.30 761.82 270.18 C 762.42 270.14 763.62 270.05 764.22 270.00 C 765.63 273.38 764.27 277.03 763.64 280.43 C 758.20 301.37 753.73 322.57 750.30 343.94 C 745.97 365.86 742.80 387.99 739.04 410.02 C 738.45 413.19 737.79 416.50 735.92 419.20 C 733.81 420.92 732.62 417.62 732.79 416.00 C 734.27 403.22 736.70 390.57 738.77 377.88 C 743.57 346.65 749.43 315.56 757.28 284.95 Z"/>
<path fill="#000000" opacity="1.00" d=" M 379.74 440.76 C 392.11 438.74 404.92 439.67 416.99 443.02 C 423.17 444.73 429.60 445.35 436.00 445.26 C 449.72 445.13 463.49 445.33 477.12 443.53 C 488.01 442.22 498.98 442.01 509.93 442.07 C 521.04 442.34 531.83 445.77 542.99 445.35 C 557.37 445.65 571.71 444.63 586.05 443.86 C 598.19 444.24 610.31 445.90 622.06 448.97 C 627.65 450.31 633.46 450.02 639.11 450.85 C 642.07 451.96 640.75 456.44 637.89 456.76 C 628.74 457.15 619.75 455.21 610.96 452.91 C 598.60 449.66 585.67 449.51 573.01 450.56 C 562.37 451.47 551.68 451.58 541.01 451.58 C 528.57 451.62 516.45 447.89 504.00 448.16 C 491.32 447.75 478.75 449.60 466.12 450.26 C 453.42 450.99 440.70 451.69 427.98 451.15 C 418.66 450.52 409.78 447.29 400.53 446.23 C 394.08 445.19 387.54 446.34 381.08 445.62 C 378.95 444.91 379.51 442.45 379.74 440.76 Z"/>
<path fill="#000000" opacity="1.00" d=" M 369.66 486.00 C 369.90 484.70 371.13 484.04 371.94 483.14 C 385.67 483.07 399.32 485.08 413.06 484.63 C 422.05 484.16 431.07 484.77 439.97 486.06 C 454.91 488.64 469.82 491.42 484.84 493.49 C 497.88 494.74 511.00 494.01 524.07 493.65 C 532.77 493.07 541.64 492.63 550.17 494.85 C 552.64 495.92 552.21 499.44 550.20 500.78 C 543.82 499.90 537.48 498.37 531.00 498.79 C 518.99 499.38 506.96 499.64 494.95 500.09 C 471.63 499.56 449.05 493.01 425.94 490.73 C 412.24 490.48 398.48 491.34 384.83 489.79 C 380.82 489.30 376.78 489.43 372.76 489.12 C 371.18 488.85 370.02 487.51 369.66 486.00 Z"/>
<path fill="#000000" opacity="1.00" d=" M 354.57 546.99 C 355.55 545.41 356.81 543.67 358.94 543.97 C 375.97 543.96 392.97 545.65 410.01 545.24 C 424.33 544.81 438.61 543.30 452.96 543.75 C 465.31 544.63 477.70 544.10 490.07 544.64 C 513.76 544.50 536.62 551.57 560.05 553.99 C 569.64 555.63 579.39 555.28 589.05 556.06 C 595.34 556.56 601.66 556.10 607.96 556.44 C 617.25 557.48 626.79 557.33 635.77 560.20 C 638.48 561.01 637.74 565.76 634.88 565.62 C 631.91 565.22 629.02 564.33 626.08 563.80 C 609.29 560.21 592.04 561.79 575.02 560.88 C 547.80 561.27 521.71 551.67 494.58 550.98 C 482.38 550.64 470.18 550.34 457.98 550.10 C 436.92 548.52 416.00 553.18 394.95 551.90 C 382.92 552.38 370.98 550.61 358.96 550.43 C 356.72 550.65 355.20 548.96 354.57 546.99 Z"/>
<path fill="#000000" opacity="1.00" d=" M 376.94 589.59 C 393.65 590.75 410.28 586.42 426.96 588.38 C 439.25 589.89 451.64 590.60 463.87 592.60 C 478.11 595.02 492.56 596.08 507.00 595.89 C 520.97 597.22 535.21 598.09 548.59 602.65 C 557.48 605.17 566.79 605.75 576.00 605.69 C 582.01 605.25 588.21 604.54 594.08 606.37 C 599.09 607.98 604.10 609.57 609.15 611.07 C 609.98 613.47 609.05 616.64 606.07 616.62 C 597.65 615.14 589.72 610.42 580.95 611.32 C 569.96 612.18 558.82 611.39 548.07 608.98 C 534.16 604.52 519.55 602.93 505.02 602.19 C 496.35 602.24 487.67 601.86 479.06 600.88 C 466.63 599.97 454.45 597.14 442.06 595.88 C 433.70 595.18 425.40 593.72 417.00 593.67 C 403.33 593.64 389.73 595.88 376.05 595.29 C 365.03 594.87 353.97 595.78 342.96 594.75 C 341.02 594.83 339.76 593.29 338.66 591.94 C 339.54 590.81 340.10 588.98 341.81 588.93 C 353.50 589.90 365.25 588.67 376.94 589.59 Z"/>
<path fill="#000000" opacity="1.00" d=" M 341.79 671.97 C 341.30 670.07 342.85 667.55 345.01 668.18 C 352.34 668.53 359.69 668.20 366.98 669.15 C 380.00 669.53 393.23 667.82 406.04 670.90 C 406.94 671.33 407.82 671.82 408.68 672.35 C 409.41 674.71 407.91 678.07 405.06 677.50 C 397.20 675.47 389.06 674.83 380.96 675.13 C 369.93 675.59 358.94 673.84 347.90 674.30 C 345.69 674.34 342.91 674.26 341.79 671.97 Z"/>
<path fill="#000000" opacity="1.00" d=" M 439.37 672.35 C 440.85 668.97 445.11 670.32 447.97 670.31 C 458.84 670.62 469.09 675.33 480.04 674.85 C 491.50 674.66 502.98 675.01 514.37 676.48 C 514.77 676.96 515.59 677.93 515.99 678.41 C 515.99 680.10 515.83 682.06 514.05 682.87 C 509.98 682.83 505.96 682.02 501.91 681.74 C 489.00 680.51 475.86 682.17 463.12 679.25 C 456.49 677.62 449.73 676.54 442.91 676.11 C 440.99 676.14 438.50 674.53 439.37 672.35 Z"/>
<path fill="#000000" opacity="1.00" d=" M 340.35 686.47 C 338.05 685.21 338.04 682.27 339.74 680.49 C 346.79 681.47 353.92 679.47 360.99 680.69 C 374.20 683.04 387.55 684.96 401.01 684.54 C 413.97 684.00 426.49 687.86 439.06 690.38 C 442.24 691.08 445.68 690.94 448.65 692.42 C 449.27 693.95 448.33 695.57 448.10 697.11 C 436.59 696.86 425.38 693.57 414.15 691.27 C 402.83 689.60 391.33 690.68 379.96 689.59 C 369.94 688.92 360.13 685.72 350.00 686.52 C 346.80 686.45 343.43 687.69 340.35 686.47 Z"/>
</g>
<g id="Group-nocolor">
<path fill="rgba(0,0,0,0)" opacity="1.00" d=" M 787.87 335.24 C 788.47 331.54 788.24 326.55 791.93 324.40 C 795.51 324.05 798.30 327.12 799.63 330.14 C 804.16 339.80 801.60 350.88 798.48 360.55 C 797.14 364.51 795.09 368.21 794.22 372.32 C 795.87 366.19 795.30 359.89 793.78 353.80 C 796.45 348.22 795.50 341.91 795.65 335.93 C 795.65 334.30 795.34 331.28 792.98 331.81 C 790.76 331.52 789.76 334.19 789.85 335.97 C 790.29 339.86 791.46 343.74 790.54 347.67 C 789.70 343.52 788.20 339.46 787.87 335.24 Z"/>
</g>
<g id="Group-nocolor">
<path fill="rgba(0,0,0,0)" opacity="1.00" d=" M 770.54 367.09 C 774.50 368.68 777.14 372.21 779.27 375.76 C 783.28 382.00 783.74 389.84 787.98 395.98 C 789.53 398.67 791.98 400.88 792.82 403.96 C 794.68 410.19 795.62 416.65 797.06 422.98 C 797.44 424.96 798.00 427.02 797.32 429.02 C 795.11 428.62 792.70 428.55 790.83 427.18 C 784.27 422.72 780.30 415.60 775.92 409.21 C 774.39 407.19 771.06 408.35 770.99 410.79 C 771.70 415.33 775.00 418.78 777.54 422.41 C 780.96 426.56 784.21 431.55 789.65 433.19 C 792.36 434.25 795.29 434.14 798.11 433.62 C 798.23 440.85 799.55 448.04 799.22 455.28 C 793.74 455.02 790.58 449.43 787.80 445.31 C 782.29 439.11 777.97 431.72 771.22 426.72 C 767.61 424.17 763.45 422.58 759.31 421.14 C 761.96 412.09 762.84 402.62 765.27 393.51 C 766.89 384.67 769.02 375.94 770.54 367.09 M 772.36 388.92 C 773.26 392.05 775.28 396.61 779.35 395.47 C 779.85 393.13 779.36 390.78 778.28 388.69 C 777.28 386.88 776.57 383.80 773.85 384.73 C 772.70 385.81 771.67 387.29 772.36 388.92 Z"/>
</g>
<g id="Group-nocolor">
<path fill="#000000" opacity="1.00" d=" M 772.36 388.92 C 771.67 387.29 772.70 385.81 773.85 384.73 C 776.57 383.80 777.28 386.88 778.28 388.69 C 779.36 390.78 779.85 393.13 779.35 395.47 C 775.28 396.61 773.26 392.05 772.36 388.92 Z"/>
</g>
<g id="Group-nocolor">
<path fill="rgba(0,0,0,0)" opacity="1.00" d=" M 789.69 386.81 C 790.55 386.55 791.58 385.01 792.43 386.09 C 792.13 389.70 795.30 392.36 794.91 395.94 C 792.68 393.19 791.24 389.95 789.69 386.81 Z"/>
<path fill="rgba(0,0,0,0)" opacity="1.00" d=" M 267.26 570.27 C 268.71 569.69 270.25 569.12 271.75 570.01 C 270.56 571.98 268.66 571.77 267.26 570.27 Z"/>
<path fill="rgba(0,0,0,0)" opacity="1.00" d=" M 701.93 692.28 C 709.92 692.56 717.94 693.06 725.93 692.58 L 725.35 693.14 C 718.14 693.70 710.90 693.43 703.69 693.24 C 702.82 694.16 701.96 695.09 701.15 696.06 C 701.42 694.79 701.67 693.54 701.93 692.28 Z"/>
<path fill="rgba(0,0,0,0)" opacity="1.00" d=" M 505.91 772.88 C 507.66 773.26 509.77 773.37 510.78 775.12 C 512.52 777.49 515.80 777.58 518.32 778.70 C 518.47 779.10 518.76 779.92 518.91 780.32 C 517.68 780.59 516.45 780.88 515.23 781.14 C 512.71 779.36 509.67 780.13 506.88 780.56 C 506.55 781.11 505.89 782.22 505.56 782.77 C 505.32 782.56 504.84 782.14 504.60 781.93 C 505.69 780.21 506.75 777.43 503.29 777.26 C 503.83 777.10 504.90 776.78 505.44 776.62 C 506.70 777.68 507.96 778.74 509.24 779.82 C 509.46 778.66 509.69 777.50 509.92 776.36 C 508.56 775.22 507.21 774.07 505.91 772.88 Z"/>
</g>
<g id="Group-nocolor">
<path fill="rgba(0,0,0,0)" opacity="1.00" d=" M 186.67 420.44 C 187.28 420.45 188.50 420.47 189.11 420.48 C 194.17 429.92 198.31 439.90 203.97 449.04 C 209.78 459.78 214.26 471.18 220.03 481.95 C 221.04 484.07 224.24 485.17 223.24 487.99 C 220.54 489.97 218.42 486.78 217.39 484.62 C 211.27 472.89 207.18 460.15 199.93 449.00 C 195.77 441.70 192.79 433.79 188.74 426.44 C 187.78 424.54 186.36 422.70 186.67 420.44 Z"/>
</g>
<g id="Group-nocolor">
<path fill="#000000" opacity="1.00" d=" M 719.39 486.88 C 719.28 485.03 720.40 481.40 722.89 483.06 C 725.95 484.00 723.93 487.35 723.58 489.46 C 719.26 509.29 715.33 529.25 713.28 549.47 C 713.15 550.76 711.81 551.40 711.04 552.30 C 707.59 550.59 709.09 546.85 709.49 543.88 C 711.68 524.72 714.88 505.64 719.39 486.88 Z"/>
<path fill="#000000" opacity="1.00" d=" M 707.08 575.27 C 703.93 572.61 704.56 566.59 707.95 564.36 C 712.39 566.26 710.84 573.34 707.08 575.27 Z"/>
</g>
<g id="Group-nocolor">
<path fill="#000000" opacity="1.00" d=" M 563.10 500.86 C 561.29 499.52 563.04 497.69 563.75 496.30 C 567.83 496.64 571.95 496.63 576.01 497.12 C 578.63 497.37 578.49 501.43 576.00 501.74 C 571.73 502.34 567.23 502.12 563.10 500.86 Z"/>
</g>
<g id="Group-nocolor">
<path fill="#f77024" opacity="1.00" d=" M 795.22 499.38 C 795.74 499.86 795.74 499.86 795.22 499.38 Z"/>
</g>
<g id="Group-nocolor">
<path fill="rgba(0,0,0,0)" opacity="1.00" d=" M 731.92 557.55 C 734.00 558.37 736.07 559.21 738.19 559.96 C 735.63 560.98 733.06 562.01 730.54 563.12 C 730.91 561.23 731.41 559.39 731.92 557.55 Z"/>
</g>
<g id="Group-nocolor">
<path fill="#f77024" opacity="1.00" d=" M 734.72 570.19 C 739.55 566.60 746.14 567.64 751.12 564.24 C 755.43 565.37 759.56 567.23 764.01 567.90 C 772.41 569.04 780.85 569.99 789.21 571.45 C 789.41 574.35 788.06 577.93 790.82 579.99 C 793.79 578.36 794.76 575.10 794.55 571.92 C 802.02 572.12 809.52 571.58 816.92 570.46 C 819.43 570.21 821.58 567.96 824.19 568.59 C 828.41 569.67 832.38 571.61 835.91 574.15 C 833.52 576.02 831.33 578.22 828.59 579.57 C 822.46 582.41 815.67 583.05 809.06 583.93 C 788.32 585.64 767.36 582.75 747.51 576.65 C 743.00 575.06 738.62 572.97 734.72 570.19 Z"/>
<path fill="#f77024" opacity="1.00" d=" M 732.60 577.29 C 737.35 578.02 741.62 580.39 746.23 581.66 C 763.32 586.67 781.21 588.84 799.00 588.69 C 812.34 588.33 826.64 587.56 838.31 580.37 C 837.83 584.06 837.99 588.00 836.37 591.44 C 834.71 594.04 832.94 596.60 831.99 599.57 C 834.09 599.68 836.20 599.77 838.33 599.88 C 838.00 600.43 837.36 601.52 837.04 602.07 C 822.66 603.19 808.42 606.58 793.91 605.73 C 780.16 605.49 766.48 603.85 752.91 601.71 C 747.01 599.98 740.18 599.66 735.32 595.59 C 733.09 589.82 733.02 583.40 732.60 577.29 Z"/>
</g>
<g id="Group-nocolor">
<path fill="#f77024" opacity="1.00" d=" M 188.07 585.21 C 196.98 579.89 207.37 578.55 217.15 575.63 C 216.74 577.74 216.23 579.83 215.69 581.91 C 214.39 582.25 213.10 582.60 211.81 582.96 C 211.85 584.17 211.91 585.39 211.98 586.61 C 214.88 588.37 218.32 587.46 221.43 588.46 C 228.43 590.65 235.84 589.71 243.05 589.92 C 251.01 590.12 258.75 587.94 266.63 587.28 C 265.54 588.09 264.37 588.79 263.03 589.08 C 254.55 591.48 245.74 592.56 236.94 592.50 C 220.40 592.95 203.63 591.03 188.07 585.21 Z"/>
</g>
<g id="Group-nocolor">
<path fill="#000000" opacity="1.00" d=" M 703.72 593.46 C 702.80 590.82 701.56 586.74 705.09 585.43 C 708.28 585.11 709.15 589.49 707.48 591.58 C 706.71 592.92 705.01 592.98 703.72 593.46 Z"/>
<path fill="#000000" opacity="1.00" d=" M 478.61 621.97 C 479.49 620.87 480.07 618.51 481.97 619.12 C 486.68 620.00 491.49 619.57 496.20 620.37 C 496.73 622.98 494.94 625.99 491.97 625.39 C 487.51 625.08 481.45 626.36 478.61 621.97 Z"/>
</g>
<g id="Group-nocolor">
<path fill="#f77024" opacity="1.00" d=" M 180.74 599.05 C 180.49 595.53 180.60 591.96 181.89 588.64 C 193.75 593.09 206.28 595.46 218.90 596.23 C 234.17 597.36 249.62 596.72 264.63 593.65 C 263.33 597.83 262.24 602.07 261.14 606.32 C 251.75 606.74 242.41 607.75 233.01 607.75 C 223.36 608.79 213.76 606.73 204.14 606.21 C 196.19 604.74 187.15 604.55 180.74 599.05 Z"/>
</g>
<g id="Group-nocolor">
<path fill="#000000" opacity="1.00" d=" M 354.90 608.34 C 365.42 606.02 376.28 605.82 387.00 606.41 C 396.06 607.59 404.79 611.13 414.04 610.81 C 424.67 611.30 435.36 609.00 445.92 611.02 C 451.80 612.09 457.20 614.79 462.93 616.38 C 464.70 616.79 465.62 618.44 466.49 619.89 C 465.43 620.85 464.73 622.89 463.00 622.68 C 454.07 621.50 446.20 615.86 436.97 616.32 C 424.36 616.69 411.55 618.18 399.09 615.42 C 391.62 613.41 383.94 611.72 376.16 611.97 C 370.92 612.35 365.65 612.62 360.49 613.64 C 353.79 614.87 346.99 616.50 340.14 615.63 C 338.57 615.41 336.53 613.81 337.30 612.05 C 337.64 610.40 339.48 609.70 341.00 609.73 C 345.65 609.47 350.33 609.36 354.90 608.34 Z"/>
</g>
<g id="Group-nocolor">
<path fill="#000000" opacity="1.00" d=" M 796.25 607.00 C 799.28 605.57 796.28 610.33 796.25 607.00 Z"/>
</g>
<g id="Group-nocolor">
<path fill="#f77024" opacity="1.00" d=" M 186.69 607.54 C 202.53 610.73 218.76 612.23 234.93 611.80 C 243.48 611.17 252.04 610.59 260.61 610.27 C 257.35 620.55 255.54 631.23 252.54 641.59 C 237.42 642.70 222.22 642.96 207.09 644.05 C 202.14 644.30 197.19 644.64 192.23 644.51 C 190.63 632.15 188.63 619.85 186.69 607.54 Z"/>
</g>
<g id="Group-nocolor">
<path fill="rgba(0,0,0,0)" opacity="1.00" d=" M 785.31 609.73 C 793.42 609.56 801.54 609.76 809.65 609.55 C 810.02 609.87 810.76 610.53 811.13 610.86 C 806.44 610.93 801.75 610.74 797.07 610.92 C 793.12 611.02 788.97 611.57 785.31 609.73 Z"/>
</g>
<g id="Group-nocolor">
<path fill="#f77024" opacity="1.00" d=" M 235.95 649.37 C 240.94 648.76 245.96 648.49 250.99 648.42 C 246.05 667.66 240.44 688.03 245.59 707.84 C 238.75 712.00 230.42 711.03 223.01 709.22 C 220.95 708.51 220.14 710.90 219.05 712.09 C 223.68 716.32 230.42 713.57 236.01 713.72 C 238.86 714.02 241.54 713.04 244.09 711.88 C 244.38 711.33 244.96 710.24 245.25 709.69 C 247.86 714.70 249.83 720.11 253.35 724.60 C 255.39 727.25 258.36 728.93 260.60 731.39 C 258.62 731.86 256.64 732.32 254.66 732.77 C 254.62 733.73 254.54 735.65 254.50 736.61 C 257.58 735.96 260.49 734.74 263.14 733.06 C 273.09 739.30 284.56 742.57 296.03 744.64 C 287.07 747.31 278.36 750.81 269.27 753.04 C 262.46 754.29 255.73 755.87 248.99 757.43 C 245.00 758.39 240.05 758.14 237.47 761.92 C 238.83 762.72 240.24 763.83 241.94 763.27 C 261.72 759.26 281.77 755.82 300.77 748.74 C 307.69 745.16 315.16 749.35 322.33 749.63 C 320.03 751.65 317.91 753.86 315.94 756.21 C 317.29 757.28 319.18 757.88 320.73 756.82 C 324.01 755.24 326.28 752.19 329.43 750.43 C 338.68 750.92 347.91 752.24 357.02 753.95 C 369.38 755.57 381.70 757.61 394.15 758.53 C 390.70 760.73 386.94 762.35 383.27 764.12 C 374.38 768.25 365.40 772.37 355.80 774.56 C 351.11 775.95 346.10 776.69 341.79 779.08 C 341.83 779.53 341.92 780.41 341.96 780.86 C 345.68 782.60 349.63 779.32 353.36 778.62 C 365.60 776.40 377.06 771.38 388.33 766.29 C 393.20 764.56 397.64 761.96 402.06 759.34 C 413.14 759.33 424.24 759.79 435.33 759.90 C 425.76 765.71 415.18 769.43 404.84 773.59 C 399.63 775.52 394.34 777.25 389.30 779.61 C 389.19 780.85 389.07 782.20 390.41 782.87 C 395.74 781.26 400.61 778.39 405.96 776.76 C 418.58 771.32 432.46 768.33 443.92 760.46 C 449.54 760.63 455.25 760.13 460.82 761.08 C 468.14 766.36 474.79 772.56 480.68 779.41 C 481.95 780.93 483.47 782.21 485.05 783.41 C 486.20 781.83 488.52 779.53 486.33 777.77 C 481.26 772.18 476.07 766.68 470.89 761.20 C 483.72 762.74 496.65 763.16 509.54 763.88 C 514.80 766.05 518.76 770.56 523.75 773.29 C 530.12 776.93 534.76 783.43 535.24 790.86 C 535.77 794.16 540.57 792.97 540.36 789.98 C 540.31 785.16 538.00 780.65 535.04 776.98 C 530.86 772.23 525.25 768.99 521.15 764.15 C 526.71 765.13 532.32 765.72 537.96 765.98 C 550.47 767.33 562.97 768.83 575.52 769.80 C 577.71 770.04 579.02 772.11 580.55 773.48 C 585.52 779.08 590.34 785.05 593.07 792.10 C 594.21 794.44 594.79 797.44 597.21 798.85 C 599.27 799.62 601.14 796.91 600.15 795.09 C 596.45 786.22 591.79 777.53 585.00 770.62 C 591.99 771.56 599.05 771.72 606.08 772.31 C 611.57 772.78 617.16 771.98 622.58 773.23 C 626.50 776.09 631.51 774.81 636.01 775.03 C 640.09 774.74 644.76 776.02 648.23 773.22 C 651.09 772.61 653.99 772.12 656.83 771.40 C 669.48 768.37 680.88 759.78 686.48 747.94 C 693.74 750.65 701.37 752.33 708.44 755.55 C 712.13 756.99 715.47 759.19 719.16 760.64 C 720.70 761.43 723.07 759.88 722.49 758.10 C 722.18 755.88 719.99 754.83 718.28 753.81 C 709.00 749.04 699.04 745.78 688.93 743.31 C 690.84 737.77 692.47 732.15 694.11 726.53 C 697.75 727.45 701.30 728.88 705.05 729.29 C 707.18 729.41 707.85 725.85 705.60 725.43 C 702.16 724.14 698.62 723.15 695.15 722.00 C 697.24 713.38 698.89 704.65 701.15 696.06 C 701.96 695.09 702.82 694.16 703.69 693.24 C 710.90 693.43 718.14 693.70 725.35 693.14 L 725.93 692.58 C 726.10 691.15 726.16 689.71 726.22 688.28 C 718.44 687.49 710.52 687.27 702.74 688.19 C 704.13 682.34 705.61 676.51 706.90 670.64 C 712.30 671.24 717.80 671.09 723.11 672.37 C 726.70 673.03 730.24 674.40 733.94 674.16 C 736.52 673.37 736.56 669.82 733.86 669.10 C 725.69 666.25 716.88 665.63 708.27 665.56 C 709.27 660.57 710.48 655.65 711.87 650.76 C 715.07 652.37 717.98 654.96 721.73 655.10 C 725.45 655.38 729.19 655.31 732.92 655.29 C 730.55 654.37 728.02 654.20 725.55 653.80 C 729.78 653.17 733.90 654.48 738.04 655.13 C 747.38 655.08 756.70 655.90 766.04 655.77 C 786.96 656.93 807.89 658.05 828.75 660.10 C 830.58 660.61 832.36 661.33 834.17 661.98 C 834.36 663.79 834.55 665.61 834.76 667.43 C 837.10 668.61 838.53 671.01 839.42 673.40 C 840.43 677.98 841.32 682.60 842.65 687.11 C 842.34 688.03 842.04 688.97 841.75 689.91 C 842.03 691.33 842.34 692.77 842.63 694.22 C 840.71 696.50 841.32 699.30 842.32 701.83 C 842.05 704.98 841.55 708.15 842.47 711.27 C 839.63 714.01 840.34 717.85 840.63 721.38 C 838.37 723.82 838.34 727.30 837.31 730.30 C 835.92 734.44 834.02 738.39 832.79 742.59 C 832.23 742.82 831.11 743.29 830.55 743.53 C 829.48 745.78 828.35 748.00 827.19 750.21 C 826.84 750.51 826.14 751.11 825.79 751.41 C 825.06 754.20 822.86 756.21 821.82 758.86 C 820.86 761.34 818.50 762.84 817.21 765.12 C 815.13 768.62 813.11 772.46 809.32 774.40 C 806.87 775.56 805.42 777.85 804.44 780.29 C 804.12 780.38 803.48 780.57 803.17 780.67 C 798.90 785.98 793.01 789.56 788.49 794.60 C 787.60 795.32 786.39 795.35 785.34 795.65 C 785.23 796.16 785.00 797.16 784.89 797.66 C 776.71 803.11 769.14 809.50 760.66 814.52 C 759.65 814.94 758.63 815.31 757.60 815.65 C 754.17 817.78 751.53 821.17 747.64 822.50 C 742.18 824.19 738.10 828.51 732.76 830.48 C 727.49 832.37 723.24 836.30 717.85 837.88 C 713.88 839.13 710.59 842.02 706.37 842.51 C 701.26 843.12 697.18 846.77 692.05 847.25 C 686.64 847.90 681.61 850.87 676.06 850.39 C 675.34 851.13 674.63 851.89 673.92 852.66 C 672.91 852.14 671.97 851.15 670.74 851.54 C 666.80 852.24 662.98 853.70 658.94 853.70 C 655.31 853.66 652.07 855.46 648.62 856.27 C 643.49 857.81 638.08 858.02 632.79 857.38 C 631.83 858.47 630.88 859.55 629.93 860.65 C 628.78 859.47 627.66 858.28 626.54 857.10 C 625.82 857.99 625.10 858.88 624.40 859.80 C 623.53 859.24 622.66 858.69 621.80 858.15 C 620.90 860.71 618.41 859.21 616.55 858.98 C 616.53 859.51 616.50 860.57 616.49 861.10 C 614.92 861.19 613.31 861.67 611.77 861.20 C 607.81 859.73 603.56 859.42 599.38 859.37 C 598.86 860.26 598.35 861.16 597.84 862.08 C 596.47 861.36 595.10 860.66 593.73 859.97 C 593.33 860.67 592.53 862.05 592.13 862.75 C 591.18 861.90 590.27 861.08 589.34 860.26 C 586.91 861.78 583.99 861.82 581.24 862.16 C 581.01 861.49 580.55 860.16 580.33 859.49 C 579.47 859.48 578.61 859.47 577.77 859.48 C 577.16 860.41 576.57 861.35 575.99 862.31 C 572.91 863.07 570.08 861.18 567.01 861.55 C 563.37 861.82 559.97 859.50 556.34 860.50 C 553.17 861.28 549.94 861.55 546.85 860.34 C 542.46 861.16 538.03 859.64 533.70 860.74 C 530.84 861.33 528.26 859.39 525.43 859.20 C 525.08 858.91 524.37 858.33 524.02 858.04 C 523.60 858.39 522.76 859.08 522.34 859.43 C 518.82 859.77 515.47 858.46 511.97 858.57 C 509.82 858.37 508.13 856.49 505.93 856.51 C 504.66 856.71 503.54 857.35 502.39 857.85 C 502.03 857.33 501.33 856.27 500.97 855.75 C 495.77 855.28 490.50 855.86 485.33 855.04 C 485.06 854.60 484.51 853.72 484.24 853.28 C 477.18 854.11 470.34 850.00 463.22 851.52 C 462.86 851.24 462.13 850.68 461.76 850.40 C 459.55 850.62 457.33 850.71 455.11 850.69 C 454.55 850.07 453.99 849.45 453.44 848.86 C 452.85 849.12 451.67 849.64 451.08 849.90 C 447.32 848.29 443.24 847.80 439.32 846.72 C 437.58 846.14 435.75 846.42 433.99 846.66 C 434.23 845.51 434.48 844.37 434.72 843.24 C 434.16 843.23 433.04 843.23 432.48 843.22 C 432.23 843.83 431.74 845.04 431.50 845.65 C 430.07 845.60 428.66 845.56 427.24 845.54 C 426.88 844.81 426.53 844.10 426.18 843.39 C 424.75 843.78 423.33 844.18 421.91 844.58 C 418.89 843.15 415.86 841.72 412.76 840.50 C 407.77 839.24 402.19 839.44 397.86 836.30 C 396.97 836.45 396.09 836.61 395.22 836.78 C 394.51 836.26 393.80 835.75 393.10 835.25 C 392.59 835.43 391.55 835.78 391.03 835.96 C 388.26 834.89 385.12 836.01 382.53 834.30 C 380.93 833.27 379.07 833.82 377.34 834.04 C 377.26 833.33 377.10 831.92 377.03 831.21 C 375.82 832.11 374.62 833.02 373.41 833.93 C 372.89 833.05 372.37 832.19 371.86 831.33 C 367.08 831.66 362.69 829.40 358.03 828.80 C 353.43 828.11 349.00 825.67 344.25 826.53 C 341.24 827.22 338.27 826.21 335.44 825.28 C 330.95 823.62 325.99 824.91 321.46 823.33 C 317.08 821.68 312.32 822.19 307.82 821.12 C 300.08 818.88 291.93 819.01 284.22 816.71 C 283.49 816.06 282.77 815.42 282.06 814.79 C 281.68 815.29 280.91 816.31 280.53 816.81 C 280.04 816.26 279.55 815.71 279.06 815.18 C 278.51 815.38 277.39 815.77 276.83 815.96 C 276.00 815.13 275.18 814.30 274.35 813.49 C 273.34 813.58 272.33 813.67 271.32 813.78 C 268.60 811.45 265.06 813.18 261.95 812.22 C 256.80 810.99 251.68 809.61 246.84 807.44 C 241.59 805.23 234.85 805.95 230.75 801.51 C 226.67 802.20 222.60 800.23 219.92 797.23 C 217.68 797.23 215.20 798.25 213.26 796.66 C 208.45 793.59 203.49 790.77 198.21 788.62 C 196.20 787.98 195.26 785.94 193.67 784.76 C 185.48 780.96 179.03 774.54 172.93 768.06 C 167.70 764.24 165.17 757.98 160.35 753.76 C 158.04 751.88 156.86 749.14 155.31 746.70 C 150.25 740.81 146.12 733.79 144.57 726.11 C 143.69 723.26 142.33 720.59 141.34 717.79 C 141.83 717.18 142.33 716.57 142.83 715.98 C 141.78 714.76 140.73 713.55 139.69 712.34 C 139.88 708.66 137.80 705.46 137.19 701.93 C 136.28 695.27 134.26 688.34 136.46 681.71 C 136.37 679.23 135.61 676.81 135.35 674.35 C 136.08 673.81 136.81 673.28 137.55 672.76 C 137.69 672.06 137.98 670.68 138.12 669.98 C 137.71 668.96 137.30 667.95 136.89 666.94 C 138.64 665.42 140.58 663.71 139.43 661.20 C 142.62 659.61 143.35 655.73 146.38 653.98 C 154.96 654.20 163.53 653.48 172.06 652.72 C 193.34 651.23 214.64 650.23 235.95 649.37 M 753.18 711.17 C 749.15 712.04 745.06 713.38 740.91 712.56 C 739.23 712.07 737.76 713.42 737.65 715.05 C 738.41 716.85 740.04 718.36 742.08 718.48 C 747.52 718.86 752.56 716.07 757.99 716.14 C 764.30 715.57 769.45 719.89 775.23 721.58 C 777.24 722.03 779.06 720.03 778.80 718.06 C 778.04 716.16 775.89 715.59 774.21 714.85 C 767.56 712.30 760.41 709.01 753.18 711.17 M 228.21 736.94 C 227.81 737.51 227.01 738.65 226.61 739.21 C 227.47 740.14 228.49 741.28 229.95 740.88 C 234.71 740.61 239.16 738.59 243.93 738.35 C 247.49 738.12 250.96 737.26 254.51 736.86 C 253.93 735.73 253.60 734.53 253.53 733.28 C 245.24 735.33 236.61 735.45 228.21 736.94 M 505.91 772.88 C 507.21 774.07 508.56 775.22 509.92 776.36 C 509.69 777.50 509.46 778.66 509.24 779.82 C 507.96 778.74 506.70 777.68 505.44 776.62 C 504.90 776.78 503.83 777.10 503.29 777.26 C 506.75 777.43 505.69 780.21 504.60 781.93 C 504.84 782.14 505.32 782.56 505.56 782.77 C 505.89 782.22 506.55 781.11 506.88 780.56 C 509.67 780.13 512.71 779.36 515.23 781.14 C 516.45 780.88 517.68 780.59 518.91 780.32 C 518.76 779.92 518.47 779.10 518.32 778.70 C 515.80 777.58 512.52 777.49 510.78 775.12 C 509.77 773.37 507.66 773.26 505.91 772.88 M 517.75 782.94 C 519.21 784.32 520.86 785.49 522.74 786.26 C 522.89 785.30 523.19 783.39 523.34 782.43 C 521.47 782.55 519.60 782.71 517.75 782.94 M 524.01 783.87 C 523.97 784.40 523.91 785.47 523.88 786.00 C 526.44 788.11 529.42 789.63 532.43 791.01 C 531.70 788.66 529.77 787.37 527.52 786.70 C 526.53 785.68 525.93 782.79 524.01 783.87 M 519.91 789.04 C 520.33 790.74 522.00 792.81 523.94 791.94 C 524.91 789.38 521.41 789.78 519.91 789.04 Z"/>
</g>
<g id="Group-nocolor">
<path fill="#000000" opacity="1.00" d=" M 228.21 736.94 C 236.61 735.45 245.24 735.33 253.53 733.28 C 253.60 734.53 253.93 735.73 254.51 736.86 C 250.96 737.26 247.49 738.12 243.93 738.35 C 239.16 738.59 234.71 740.61 229.95 740.88 C 228.49 741.28 227.47 740.14 226.61 739.21 C 227.01 738.65 227.81 737.51 228.21 736.94 Z"/>
</g>
<g id="Group-nocolor">
<path fill="#000000" opacity="1.00" d=" M 467.13 759.11 C 470.07 757.49 467.36 762.42 467.13 759.11 Z"/>
</g>
<g id="Group-nocolor">
<path fill="#000000" opacity="1.00" d=" M 389.30 779.61 C 394.34 777.25 399.63 775.52 404.84 773.59 C 405.21 774.63 405.58 775.69 405.96 776.76 C 400.61 778.39 395.74 781.26 390.41 782.87 C 389.07 782.20 389.19 780.85 389.30 779.61 Z"/>
</g>
<g id="Group-nocolor">
<path fill="rgba(0,0,0,0)" opacity="1.00" d=" M 622.58 773.23 C 631.11 773.97 639.70 773.85 648.23 773.22 C 644.76 776.02 640.09 774.74 636.01 775.03 C 631.51 774.81 626.50 776.09 622.58 773.23 Z"/>
</g>
<g id="Group-nocolor">
<path fill="rgba(0,0,0,0)" opacity="1.00" d=" M 517.75 782.94 C 519.60 782.71 521.47 782.55 523.34 782.43 C 523.19 783.39 522.89 785.30 522.74 786.26 C 520.86 785.49 519.21 784.32 517.75 782.94 Z"/>
</g>
<g id="Group-nocolor">
<path fill="rgba(0,0,0,0)" opacity="1.00" d=" M 524.01 783.87 C 525.93 782.79 526.53 785.68 527.52 786.70 C 529.77 787.37 531.70 788.66 532.43 791.01 C 529.42 789.63 526.44 788.11 523.88 786.00 C 523.91 785.47 523.97 784.40 524.01 783.87 Z"/>
</g>
<g id="Group-nocolor">
<path fill="rgba(0,0,0,0)" opacity="1.00" d=" M 519.91 789.04 C 521.41 789.78 524.91 789.38 523.94 791.94 C 522.00 792.81 520.33 790.74 519.91 789.04 Z"/>
</g>
</g></svg>